<svg width="385" height="406" viewBox="0 0 385 406" fill="none" xmlns="http://www.w3.org/2000/svg">
<circle cx="63" cy="300" r="63" fill="#F7F9FF"/>
<path d="M16.3809 354.526L24.0841 405.119H68.8276L79.213 355.259L16.3809 354.526Z" fill="#FF9D38"/>
<path d="M47.3515 387.212C61.4935 387.212 72.9577 387.096 72.9577 386.952C72.9577 386.809 61.4935 386.693 47.3515 386.693C33.2096 386.693 21.7454 386.809 21.7454 386.952C21.7454 387.096 33.2096 387.212 47.3515 387.212Z" fill="#BD6000"/>
<path d="M47.3515 384.726C61.5857 384.726 73.1247 384.609 73.1247 384.466C73.1247 384.322 61.5857 384.206 47.3515 384.206C33.1173 384.206 21.5782 384.322 21.5782 384.466C21.5782 384.609 33.1173 384.726 47.3515 384.726Z" fill="#BD6000"/>
<path d="M47.268 381.914C61.5022 381.914 73.0412 381.798 73.0412 381.655C73.0412 381.511 61.5022 381.395 47.268 381.395C33.0338 381.395 21.4948 381.511 21.4948 381.655C21.4948 381.798 33.0338 381.914 47.268 381.914Z" fill="#BD6000"/>
<path d="M29.194 402.238C29.3354 402.213 28.9515 399.32 28.3366 395.776C27.7217 392.232 27.1085 389.379 26.9671 389.403C26.8257 389.428 27.2096 392.321 27.8245 395.865C28.4394 399.409 29.0526 402.262 29.194 402.238Z" fill="#BD6000"/>
<path d="M32.2699 401.695C31.8131 397.558 31.5313 393.404 31.4253 389.244C32.2291 393.342 32.5128 397.526 32.2699 401.695Z" fill="#BD6000"/>
<path d="M37.8107 401.695C36.7777 397.492 36.288 393.173 36.3536 388.845C36.7647 390.964 37.0529 393.104 37.2167 395.256C37.5389 397.389 37.7372 399.539 37.8107 401.695Z" fill="#BD6000"/>
<path d="M41.7087 401.955C41.0236 397.66 40.8833 393.296 41.2911 388.966C41.5259 391.122 41.6343 393.291 41.6159 395.46C41.7733 397.621 41.8043 399.79 41.7087 401.955Z" fill="#BD6000"/>
<path d="M48.6099 401.694C48.7533 401.689 48.7762 398.929 48.661 395.528C48.5458 392.128 48.3361 389.375 48.1926 389.38C48.0492 389.385 48.0263 392.146 48.1415 395.546C48.2568 398.946 48.4664 401.699 48.6099 401.694Z" fill="#BD6000"/>
<path d="M54.1422 396.405C54.1773 392.895 54.0894 390.049 53.9459 390.047C53.8023 390.046 53.6575 392.89 53.6224 396.4C53.5873 399.91 53.6752 402.756 53.8187 402.758C53.9622 402.759 54.107 399.915 54.1422 396.405Z" fill="#BD6000"/>
<path d="M59.2562 394.662C59.611 391.005 59.7828 388.03 59.6399 388.016C59.4971 388.002 59.0937 390.955 58.7389 394.612C58.3841 398.269 58.2122 401.244 58.3551 401.258C58.4979 401.272 58.9014 398.319 59.2562 394.662Z" fill="#BD6000"/>
<path d="M64.447 400.656C64.6357 396.838 65.4509 393.076 66.8601 389.522C66.5822 391.398 66.1979 393.257 65.7092 395.089C65.3948 396.967 64.9734 398.826 64.447 400.656Z" fill="#BD6000"/>
<path d="M60.1406 254.695C60.1338 254.781 60.115 254.865 60.085 254.946L59.8715 255.66L59.0177 258.388C58.6371 259.566 58.1824 261.013 57.6998 262.72C57.2171 264.428 56.6232 266.33 56.0849 268.491C55.5466 270.653 54.9062 272.991 54.34 275.533C53.7739 278.076 53.1985 280.803 52.6138 283.679C51.5372 289.45 50.5627 295.824 49.8295 302.56C49.0963 309.296 48.9014 315.744 48.7807 321.617C48.7807 324.549 48.7808 327.342 48.8643 329.967C48.9478 332.593 49.0499 335.005 49.1798 337.213C49.3098 339.421 49.4861 341.425 49.6253 343.188C49.7645 344.951 49.913 346.454 50.0615 347.688L50.3585 350.536L50.4235 351.279C50.4348 351.362 50.4348 351.446 50.4235 351.529C50.3934 351.449 50.3747 351.364 50.3678 351.279L50.275 350.555L49.8852 347.716C49.7088 346.482 49.5232 344.933 49.3654 343.216C49.2077 341.5 48.9664 339.505 48.8457 337.241C48.7251 334.977 48.5302 332.602 48.4652 329.976C48.4002 327.351 48.3538 324.567 48.3353 321.626C48.4002 315.744 48.6879 309.287 49.3376 302.523C49.9873 295.759 51.0267 289.376 52.1219 283.605C52.7159 280.729 53.2542 277.983 53.8946 275.45C54.5349 272.917 55.1104 270.551 55.7043 268.408C56.2983 266.265 56.883 264.344 57.3935 262.656C57.9039 260.967 58.3773 259.52 58.7949 258.351L59.723 255.651L59.9829 254.955C60.0208 254.86 60.0741 254.772 60.1406 254.695Z" fill="#00587A"/>
<path d="M52.0569 286.027C53.2863 282.382 55.7433 279.276 59.0084 277.24C60.1128 276.554 61.5143 275.997 62.7208 276.563C64.28 277.315 64.4099 279.514 63.9459 281.202C63.1441 284.038 61.3445 286.49 58.8784 288.105C56.6957 289.719 53.9651 290.409 51.2773 290.026" fill="#00587A"/>
<path d="M49.3469 307.181C50.4977 302.811 53.9873 296.604 57.6069 293.904C58.1525 293.449 58.7837 293.108 59.4631 292.902C59.8074 292.804 60.1704 292.793 60.52 292.869C60.8696 292.945 61.1951 293.106 61.4678 293.338C62.2103 294.043 62.136 295.193 61.9133 296.233C61.1724 299.414 59.5615 302.328 57.2606 304.648C54.9597 306.967 52.0592 308.602 48.8828 309.37" fill="#00587A"/>
<path d="M48.5952 325.792C50.398 321.62 53.2814 318.004 56.948 315.317C57.3384 314.959 57.7966 314.683 58.2954 314.504C58.7943 314.326 59.3239 314.249 59.853 314.278C61.4307 314.566 62.1546 316.495 62.0154 318.091C61.7277 321.385 59.2311 324.029 56.6139 326.07C54.2287 327.719 51.6392 329.051 48.9107 330.032" fill="#00587A"/>
<path d="M49.0128 339.18C50.7523 336 53.1736 333.244 56.1035 331.108C56.7317 330.641 57.4587 330.323 58.2288 330.181C58.6157 330.111 59.0143 330.147 59.382 330.286C59.7498 330.425 60.073 330.661 60.317 330.969C61.0317 332.018 60.317 333.428 59.5931 334.43C57.0941 337.914 53.5512 340.514 49.4769 341.852" fill="#00587A"/>
<path d="M48.6601 333.743C45.6051 329.998 42.2126 326.542 38.5253 323.417C37.9499 322.935 37.226 322.415 36.5021 322.656C36.2319 322.769 36.0004 322.958 35.8356 323.201C35.6709 323.443 35.58 323.727 35.574 324.02C35.5735 324.605 35.7069 325.183 35.9638 325.709C37.1742 328.401 38.9759 330.785 41.235 332.686C43.4941 334.586 46.1526 335.953 49.0128 336.685" fill="#00587A"/>
<path d="M48.985 316.328L40.9941 306.624C40.3031 305.653 39.4376 304.819 38.4418 304.165C37.93 303.854 37.3425 303.689 36.7434 303.689C36.1443 303.689 35.5567 303.854 35.045 304.165C34.585 304.545 34.2398 305.046 34.0481 305.612C33.8563 306.177 33.8255 306.784 33.9591 307.366C34.2435 308.528 34.7718 309.616 35.509 310.558C37.0559 312.943 39.021 315.03 41.3096 316.718C43.6484 318.323 45.7738 319.372 48.5766 318.954" fill="#00587A"/>
<path d="M50.0986 296.743C48.5433 292.085 45.7795 287.923 42.0891 284.681C41.5126 284.099 40.7921 283.68 40.0009 283.466C38.4046 283.16 36.864 284.487 36.3442 286.027C36.0912 286.907 36.0249 287.831 36.1496 288.738C36.2742 289.645 36.5871 290.517 37.0681 291.297C38.0344 292.845 39.2958 294.188 40.7805 295.249C43.4651 297.298 46.4564 298.91 49.6438 300.027" fill="#00587A"/>
<path d="M53.2728 279.226C52.5025 273.604 49.5604 268.918 46.1729 264.381C45.4582 263.453 44.4559 262.405 43.2772 262.581C42.903 262.662 42.5549 262.835 42.2647 263.084C41.9745 263.334 41.7514 263.652 41.6159 264.01C41.3518 264.728 41.2442 265.493 41.3003 266.255C41.4474 269.666 42.5961 272.958 44.6032 275.72C46.6103 278.482 49.3867 280.592 52.586 281.787" fill="#00587A"/>
<path d="M55.5095 270.301C55.1412 267.415 55.0448 264.501 55.2218 261.598C55.4037 258.68 56.4041 255.873 58.1081 253.498C58.8376 252.474 59.8412 251.677 61.0038 251.197C61.5858 250.966 62.2175 250.888 62.8383 250.971C63.4591 251.054 64.0482 251.295 64.5491 251.67C64.9741 252.066 65.3041 252.553 65.5146 253.095C65.7251 253.636 65.8107 254.218 65.7649 254.797C65.6553 255.953 65.3411 257.081 64.8368 258.128C62.7115 263.231 59.1755 268.881 55.4816 270.31" fill="#00587A"/>
<path d="M20.8172 277.009C20.8406 277.246 20.8406 277.485 20.8172 277.723C20.8172 278.243 20.8172 278.92 20.8172 279.764C20.8172 280.608 20.8172 281.731 20.8636 282.993C20.91 284.255 20.91 285.683 21.0214 287.261C21.1606 290.424 21.4669 294.182 21.9495 298.348C22.4321 302.514 23.1746 307.051 24.1491 311.782C25.1236 316.514 26.3301 320.958 27.5366 324.976C28.7432 328.993 29.9961 332.546 31.1469 335.497C31.6852 336.991 32.2514 338.28 32.7247 339.468C33.198 340.655 33.6528 341.63 33.9776 342.446L34.7758 344.302C34.881 344.516 34.9649 344.739 35.0264 344.97C34.892 344.774 34.777 344.566 34.683 344.348L33.7549 342.492C33.3651 341.694 32.9103 340.711 32.4184 339.542C31.9265 338.373 31.3325 337.074 30.7664 335.59C29.5692 332.648 28.307 329.095 27.054 325.078C25.8011 321.06 24.6317 316.598 23.6201 311.847C22.6084 307.097 21.9402 302.569 21.4483 298.357C20.9564 294.145 20.7244 290.406 20.6316 287.224C20.5481 285.637 20.5666 284.199 20.5573 282.937C20.5481 281.675 20.5573 280.59 20.5573 279.699L20.6316 277.658C20.6733 277.436 20.7354 277.219 20.8172 277.009Z" fill="#00587A"/>
<path d="M22.0608 300.074C22.1124 297.327 23.1163 294.684 24.9008 292.596C25.1609 292.21 25.512 291.894 25.9231 291.675C26.3341 291.457 26.7926 291.343 27.2581 291.343C28.4832 291.519 29.0401 292.985 29.1143 294.228C29.1798 296.331 28.4845 298.387 27.156 300.018C26.0177 301.586 24.3071 302.643 22.3949 302.959" fill="#00587A"/>
<path d="M24.7616 315.057C24.6038 311.838 25.6897 306.856 27.5459 304.239C27.8247 303.809 28.1877 303.44 28.6132 303.154C28.8261 303.013 29.0703 302.927 29.3244 302.903C29.5785 302.878 29.8346 302.917 30.0703 303.015C30.3658 303.224 30.6051 303.502 30.767 303.826C30.9289 304.15 31.0084 304.508 30.9984 304.87C31.1804 307.199 30.7098 309.532 29.6393 311.609C28.5688 313.685 26.9408 315.422 24.9379 316.625" fill="#00587A"/>
<path d="M28.2605 327.898C28.6031 324.682 29.7946 321.614 31.713 319.01C31.9025 318.683 32.1552 318.398 32.4564 318.17C32.7576 317.942 33.1012 317.776 33.4671 317.683C34.6087 317.535 35.5089 318.694 35.7595 319.817C36.27 322.118 35.1284 324.456 33.8012 326.414C32.5325 328.048 31.0568 329.511 29.4113 330.765" fill="#00587A"/>
<path d="M31.4346 336.916C31.9273 334.382 32.973 331.987 34.4973 329.902C34.823 329.445 35.2482 329.067 35.7409 328.798C35.9903 328.667 36.2707 328.606 36.552 328.623C36.8333 328.639 37.1047 328.732 37.3373 328.891C38.0426 329.447 37.8848 330.552 37.5879 331.405C36.636 334.314 34.7834 336.845 32.2977 338.633" fill="#00587A"/>
<path d="M30.0239 333.289C27.1374 331.399 24.0836 329.778 20.9007 328.446C20.671 328.305 20.4099 328.224 20.1409 328.209C19.872 328.195 19.6037 328.247 19.3601 328.362C19.1985 328.497 19.0799 328.676 19.0189 328.877C18.9578 329.078 18.9571 329.293 19.0167 329.494C19.1441 329.893 19.3599 330.257 19.6478 330.561C21.0542 332.129 22.7956 333.36 24.7429 334.163C26.6902 334.966 28.7933 335.32 30.8963 335.2" fill="#00587A"/>
<path d="M26.4879 321.366L18.9796 316.477C18.2945 315.967 17.5202 315.589 16.6965 315.364C16.2822 315.257 15.8466 315.266 15.4373 315.39C15.0281 315.515 14.6609 315.749 14.3762 316.069C14.1445 316.426 14.0165 316.841 14.0067 317.267C13.9969 317.693 14.1055 318.113 14.3205 318.481C14.7629 319.217 15.3579 319.85 16.0654 320.337C17.6334 321.63 19.4224 322.63 21.3462 323.287C23.286 323.881 24.9565 324.131 26.7756 323.287" fill="#00587A"/>
<path d="M23.026 307.774C20.9659 304.936 18.1892 302.695 14.9794 301.28C14.4624 301.008 13.8832 300.877 13.2996 300.899C12.7322 301.03 12.2283 301.355 11.8743 301.817C11.5203 302.279 11.3384 302.851 11.3599 303.432C11.3776 304.087 11.5322 304.73 11.8135 305.321C12.0948 305.913 12.4967 306.438 12.9933 306.865C13.9927 307.701 15.147 308.331 16.3901 308.721C18.659 309.538 21.0426 309.992 23.453 310.066" fill="#00587A"/>
<path d="M21.4205 295.184C19.6849 291.519 16.6779 288.959 13.3924 286.593C12.6963 286.092 11.7961 285.619 11.0351 285.99C10.798 286.125 10.5983 286.317 10.4541 286.549C10.3098 286.78 10.2256 287.044 10.209 287.316C10.1838 287.862 10.2756 288.406 10.4782 288.912C11.3117 291.204 12.8018 293.199 14.7626 294.65C16.7234 296.1 19.0681 296.941 21.504 297.068" fill="#00587A"/>
<path d="M21.0214 288.625C20.1491 286.739 19.4562 284.776 18.9517 282.761C18.448 280.733 18.5252 278.605 19.1745 276.619C19.456 275.783 19.9635 275.041 20.6408 274.476C20.9867 274.192 21.3997 274.002 21.8401 273.924C22.2806 273.846 22.7337 273.883 23.156 274.03C23.5269 274.21 23.8533 274.469 24.1117 274.79C24.3701 275.111 24.554 275.485 24.6502 275.886C24.8322 276.693 24.8699 277.525 24.7616 278.345C24.4182 282.279 23.221 286.88 21.0492 288.653" fill="#00587A"/>
<path d="M77.3754 276.517C77.4201 276.752 77.4418 276.992 77.4404 277.231L77.5146 279.272C77.5146 280.2 77.5703 281.249 77.5146 282.51C77.4589 283.772 77.5146 285.21 77.4404 286.797C77.3476 289.97 77.0784 293.746 76.6236 297.93C76.1689 302.115 75.4357 306.67 74.4519 311.421C73.4681 316.171 72.243 320.634 71.0179 324.651C69.7929 328.668 68.4842 332.222 67.3056 335.163C66.7394 336.647 66.1454 337.946 65.6535 339.115C65.1617 340.284 64.7254 341.258 64.3171 342.066L63.389 343.921C63.2947 344.139 63.1797 344.347 63.0456 344.543C63.107 344.312 63.1909 344.089 63.2962 343.875L64.0943 342.019C64.4563 341.212 64.8832 340.21 65.3473 339.041C65.8113 337.872 66.3867 336.555 66.925 335.07C68.0666 332.12 69.301 328.575 70.5353 324.549C71.7697 320.522 72.9113 316.087 73.9229 311.356C74.9345 306.624 75.612 302.078 76.1225 297.921C76.6329 293.765 76.9114 289.998 77.0506 286.834C77.1527 285.257 77.1619 283.819 77.2084 282.557C77.2548 281.295 77.264 280.219 77.2548 279.328V277.287C77.2671 277.027 77.3075 276.768 77.3754 276.517Z" fill="#00587A"/>
<path d="M76.1318 299.582C76.0801 296.836 75.0763 294.192 73.2918 292.104C73.0316 291.718 72.6806 291.402 72.2695 291.183C71.8584 290.965 71.3999 290.851 70.9344 290.851C69.7093 291.028 69.1525 292.494 69.0782 293.737C69.0206 295.843 69.7259 297.899 71.0644 299.526C72.2027 301.094 73.9133 302.151 75.8255 302.467" fill="#00587A"/>
<path d="M73.431 314.566C73.5888 311.346 72.5029 306.364 70.6467 303.748C70.3679 303.317 70.0049 302.948 69.5794 302.662C69.3665 302.521 69.1223 302.435 68.8682 302.411C68.6142 302.387 68.358 302.425 68.1223 302.523C67.8268 302.732 67.5875 303.011 67.4256 303.334C67.2637 303.658 67.1842 304.017 67.1942 304.378C67.0122 306.707 67.4828 309.041 68.5533 311.117C69.6238 313.193 71.2518 314.931 73.2547 316.134" fill="#00587A"/>
<path d="M69.9321 327.36C69.6068 324.134 68.428 321.054 66.5167 318.435C66.3216 318.116 66.0653 317.838 65.7627 317.619C65.4601 317.399 65.1171 317.241 64.7533 317.154C63.6117 317.006 62.7115 318.166 62.4609 319.288C61.9504 321.589 63.092 323.927 64.4192 325.885C65.6965 327.521 67.1816 328.984 68.8369 330.236" fill="#00587A"/>
<path d="M66.758 336.425C66.2569 333.888 65.2016 331.492 63.6674 329.41C63.3417 328.953 62.9165 328.576 62.4237 328.306C62.1744 328.175 61.894 328.115 61.6127 328.131C61.3314 328.147 61.0599 328.24 60.8274 328.399C60.1221 328.956 60.2798 330.06 60.5768 330.913C61.5286 333.823 63.3813 336.354 65.867 338.141" fill="#00587A"/>
<path d="M68.1687 332.806C71.0551 330.916 74.109 329.295 77.2919 327.963C77.5216 327.823 77.7827 327.741 78.0516 327.727C78.3206 327.712 78.5889 327.765 78.8325 327.88C78.9941 328.014 79.1127 328.193 79.1737 328.394C79.2347 328.595 79.2355 328.81 79.1759 329.011C79.0484 329.41 78.8327 329.775 78.5448 330.078C77.1384 331.646 75.3969 332.877 73.4497 333.68C71.5024 334.483 69.3993 334.838 67.2963 334.717" fill="#00587A"/>
<path d="M71.6954 320.865L79.2037 315.976C79.8889 315.466 80.6632 315.089 81.4868 314.863C81.9011 314.756 82.3367 314.765 82.746 314.889C83.1553 315.014 83.5224 315.249 83.8071 315.568C84.0389 315.925 84.1668 316.34 84.1766 316.766C84.1864 317.192 84.0778 317.612 83.8628 317.98C83.4206 318.716 82.8256 319.349 82.1179 319.836C80.5497 321.129 78.7607 322.128 76.8371 322.786C74.8974 323.38 73.2268 323.63 71.4077 322.786" fill="#00587A"/>
<path d="M75.1666 307.282C77.2267 304.444 80.0034 302.203 83.2132 300.788C83.7301 300.516 84.3094 300.385 84.893 300.408C85.4586 300.54 85.9604 300.866 86.3126 301.328C86.6647 301.79 86.8453 302.36 86.8234 302.94C86.8057 303.595 86.6511 304.238 86.3698 304.829C86.0885 305.421 85.6866 305.947 85.19 306.373C84.1904 307.209 83.0362 307.839 81.7932 308.229C79.5244 309.046 77.1408 309.5 74.7303 309.574" fill="#00587A"/>
<path d="M76.7628 294.692C78.4984 291.028 81.5054 288.467 84.7909 286.101C85.487 285.6 86.3872 285.127 87.1482 285.498C87.3853 285.633 87.585 285.825 87.7292 286.057C87.8735 286.289 87.9577 286.552 87.9743 286.825C87.9992 287.37 87.9075 287.914 87.7051 288.421C86.8702 290.71 85.3794 292.704 83.4187 294.153C81.458 295.601 79.1141 296.441 76.6793 296.567" fill="#00587A"/>
<path d="M77.1898 288.133C78.062 286.247 78.755 284.284 79.2595 282.269C79.7632 280.241 79.686 278.113 79.0367 276.127C78.7603 275.273 78.2489 274.514 77.561 273.937C77.2152 273.654 76.8022 273.464 76.3617 273.386C75.9213 273.308 75.4681 273.345 75.0459 273.492C74.6733 273.671 74.345 273.93 74.085 274.251C73.8249 274.572 73.6396 274.946 73.5424 275.348C73.3635 276.155 73.3289 276.987 73.4403 277.806C73.7837 281.74 74.9809 286.342 77.1527 288.114" fill="#00587A"/>
<path d="M11.2949 344.506V353.969C11.2949 354.954 11.686 355.897 12.3823 356.593C13.0785 357.289 14.0227 357.68 15.0073 357.68H79.7977C80.7823 357.68 81.7266 357.289 82.4228 356.593C83.119 355.897 83.5101 354.954 83.5101 353.969V344.506H11.2949Z" fill="#FF9D38"/>
<path d="M16.8728 357.699L17.4111 360.714L77.1898 364.973L78.7026 357.699H16.8728Z" fill="#BD6000"/>
<path d="M380.585 156.228C380.938 156.102 381.316 156.058 381.689 156.098H382.06L381.94 156.219C381.94 155.792 382.005 155.486 382.06 155.486C382.116 155.486 382.162 155.792 382.181 156.219V156.339H381.68C381.311 156.385 380.937 156.346 380.585 156.228Z" fill="#E0E0E0"/>
<path d="M378.376 156.358C378.781 156.358 379.109 156.3 379.109 156.228C379.109 156.156 378.781 156.098 378.376 156.098C377.971 156.098 377.643 156.156 377.643 156.228C377.643 156.3 377.971 156.358 378.376 156.358Z" fill="#E0E0E0"/>
<path d="M375.424 156.358C375.829 156.358 376.158 156.3 376.158 156.228C376.158 156.156 375.829 156.098 375.424 156.098C375.019 156.098 374.691 156.156 374.691 156.228C374.691 156.3 375.019 156.358 375.424 156.358Z" fill="#E0E0E0"/>
<path d="M372.473 156.358C372.878 156.358 373.206 156.3 373.206 156.228C373.206 156.156 372.878 156.098 372.473 156.098C372.068 156.098 371.74 156.156 371.74 156.228C371.74 156.3 372.068 156.358 372.473 156.358Z" fill="#E0E0E0"/>
<path d="M369.522 156.358C369.927 156.358 370.255 156.3 370.255 156.228C370.255 156.156 369.927 156.098 369.522 156.098C369.117 156.098 368.789 156.156 368.789 156.228C368.789 156.3 369.117 156.358 369.522 156.358Z" fill="#E0E0E0"/>
<path d="M366.57 156.358C366.975 156.358 367.304 156.3 367.304 156.228C367.304 156.156 366.975 156.098 366.57 156.098C366.165 156.098 365.837 156.156 365.837 156.228C365.837 156.3 366.165 156.358 366.57 156.358Z" fill="#E0E0E0"/>
<path d="M363.619 156.358C364.024 156.358 364.352 156.3 364.352 156.228C364.352 156.156 364.024 156.098 363.619 156.098C363.214 156.098 362.886 156.156 362.886 156.228C362.886 156.3 363.214 156.358 363.619 156.358Z" fill="#E0E0E0"/>
<path d="M360.668 156.358C361.073 156.358 361.401 156.3 361.401 156.228C361.401 156.156 361.073 156.098 360.668 156.098C360.263 156.098 359.934 156.156 359.934 156.228C359.934 156.3 360.263 156.358 360.668 156.358Z" fill="#E0E0E0"/>
<path d="M357.716 156.358C358.121 156.358 358.45 156.3 358.45 156.228C358.45 156.156 358.121 156.098 357.716 156.098C357.311 156.098 356.983 156.156 356.983 156.228C356.983 156.3 357.311 156.358 357.716 156.358Z" fill="#E0E0E0"/>
<path d="M354.765 156.358C355.17 156.358 355.498 156.3 355.498 156.228C355.498 156.156 355.17 156.098 354.765 156.098C354.36 156.098 354.032 156.156 354.032 156.228C354.032 156.3 354.36 156.358 354.765 156.358Z" fill="#E0E0E0"/>
<path d="M351.814 156.358C352.219 156.358 352.547 156.3 352.547 156.228C352.547 156.156 352.219 156.098 351.814 156.098C351.409 156.098 351.08 156.156 351.08 156.228C351.08 156.3 351.409 156.358 351.814 156.358Z" fill="#E0E0E0"/>
<path d="M348.862 156.358C349.267 156.358 349.595 156.3 349.595 156.228C349.595 156.156 349.267 156.098 348.862 156.098C348.457 156.098 348.129 156.156 348.129 156.228C348.129 156.3 348.457 156.358 348.862 156.358Z" fill="#E0E0E0"/>
<path d="M345.911 156.358C346.316 156.358 346.644 156.3 346.644 156.228C346.644 156.156 346.316 156.098 345.911 156.098C345.506 156.098 345.178 156.156 345.178 156.228C345.178 156.3 345.506 156.358 345.911 156.358Z" fill="#E0E0E0"/>
<path d="M342.96 156.358C343.364 156.358 343.693 156.3 343.693 156.228C343.693 156.156 343.364 156.098 342.96 156.098C342.555 156.098 342.226 156.156 342.226 156.228C342.226 156.3 342.555 156.358 342.96 156.358Z" fill="#E0E0E0"/>
<path d="M340.008 156.358C340.413 156.358 340.741 156.3 340.741 156.228C340.741 156.156 340.413 156.098 340.008 156.098C339.603 156.098 339.275 156.156 339.275 156.228C339.275 156.3 339.603 156.358 340.008 156.358Z" fill="#E0E0E0"/>
<path d="M337.057 156.358C337.462 156.358 337.79 156.3 337.79 156.228C337.79 156.156 337.462 156.098 337.057 156.098C336.652 156.098 336.324 156.156 336.324 156.228C336.324 156.3 336.652 156.358 337.057 156.358Z" fill="#E0E0E0"/>
<path d="M334.106 156.358C334.51 156.358 334.839 156.3 334.839 156.228C334.839 156.156 334.51 156.098 334.106 156.098C333.701 156.098 333.372 156.156 333.372 156.228C333.372 156.3 333.701 156.358 334.106 156.358Z" fill="#E0E0E0"/>
<path d="M331.154 156.358C331.559 156.358 331.887 156.3 331.887 156.228C331.887 156.156 331.559 156.098 331.154 156.098C330.749 156.098 330.421 156.156 330.421 156.228C330.421 156.3 330.749 156.358 331.154 156.358Z" fill="#E0E0E0"/>
<path d="M329.502 155.671C329.574 155.671 329.632 155.343 329.632 154.938C329.632 154.534 329.574 154.205 329.502 154.205C329.43 154.205 329.372 154.534 329.372 154.938C329.372 155.343 329.43 155.671 329.502 155.671Z" fill="#E0E0E0"/>
<path d="M329.502 152.721C329.574 152.721 329.632 152.393 329.632 151.988C329.632 151.583 329.574 151.255 329.502 151.255C329.43 151.255 329.372 151.583 329.372 151.988C329.372 152.393 329.43 152.721 329.502 152.721Z" fill="#E0E0E0"/>
<path d="M329.502 149.771C329.574 149.771 329.632 149.442 329.632 149.038C329.632 148.633 329.574 148.305 329.502 148.305C329.43 148.305 329.372 148.633 329.372 149.038C329.372 149.442 329.43 149.771 329.502 149.771Z" fill="#E0E0E0"/>
<path d="M329.502 146.82C329.574 146.82 329.632 146.492 329.632 146.087C329.632 145.682 329.574 145.354 329.502 145.354C329.43 145.354 329.372 145.682 329.372 146.087C329.372 146.492 329.43 146.82 329.502 146.82Z" fill="#E0E0E0"/>
<path d="M329.502 143.87C329.574 143.87 329.632 143.542 329.632 143.137C329.632 142.732 329.574 142.404 329.502 142.404C329.43 142.404 329.372 142.732 329.372 143.137C329.372 143.542 329.43 143.87 329.502 143.87Z" fill="#E0E0E0"/>
<path d="M329.502 140.919C329.574 140.919 329.632 140.591 329.632 140.186C329.632 139.782 329.574 139.453 329.502 139.453C329.43 139.453 329.372 139.782 329.372 140.186C329.372 140.591 329.43 140.919 329.502 140.919Z" fill="#E0E0E0"/>
<path d="M329.502 137.969C329.574 137.969 329.632 137.641 329.632 137.236C329.632 136.831 329.574 136.503 329.502 136.503C329.43 136.503 329.372 136.831 329.372 137.236C329.372 137.641 329.43 137.969 329.502 137.969Z" fill="#E0E0E0"/>
<path d="M329.502 135.019C329.574 135.019 329.632 134.69 329.632 134.286C329.632 133.881 329.574 133.553 329.502 133.553C329.43 133.553 329.372 133.881 329.372 134.286C329.372 134.69 329.43 135.019 329.502 135.019Z" fill="#E0E0E0"/>
<path d="M329.502 132.068C329.574 132.068 329.632 131.74 329.632 131.335C329.632 130.93 329.574 130.602 329.502 130.602C329.43 130.602 329.372 130.93 329.372 131.335C329.372 131.74 329.43 132.068 329.502 132.068Z" fill="#E0E0E0"/>
<path d="M329.502 129.118C329.574 129.118 329.632 128.79 329.632 128.385C329.632 127.98 329.574 127.652 329.502 127.652C329.43 127.652 329.372 127.98 329.372 128.385C329.372 128.79 329.43 129.118 329.502 129.118Z" fill="#E0E0E0"/>
<path d="M329.502 126.167C329.574 126.167 329.632 125.839 329.632 125.435C329.632 125.03 329.574 124.702 329.502 124.702C329.43 124.702 329.372 125.03 329.372 125.435C329.372 125.839 329.43 126.167 329.502 126.167Z" fill="#E0E0E0"/>
<path d="M329.502 123.217C329.574 123.217 329.632 122.889 329.632 122.484C329.632 122.079 329.574 121.751 329.502 121.751C329.43 121.751 329.372 122.079 329.372 122.484C329.372 122.889 329.43 123.217 329.502 123.217Z" fill="#E0E0E0"/>
<path d="M329.502 120.267C329.574 120.267 329.632 119.939 329.632 119.534C329.632 119.129 329.574 118.801 329.502 118.801C329.43 118.801 329.372 119.129 329.372 119.534C329.372 119.939 329.43 120.267 329.502 120.267Z" fill="#E0E0E0"/>
<path d="M329.502 117.316C329.574 117.316 329.632 116.988 329.632 116.583C329.632 116.178 329.574 115.85 329.502 115.85C329.43 115.85 329.372 116.178 329.372 116.583C329.372 116.988 329.43 117.316 329.502 117.316Z" fill="#E0E0E0"/>
<path d="M329.502 114.366C329.574 114.366 329.632 114.038 329.632 113.633C329.632 113.228 329.574 112.9 329.502 112.9C329.43 112.9 329.372 113.228 329.372 113.633C329.372 114.038 329.43 114.366 329.502 114.366Z" fill="#E0E0E0"/>
<path d="M329.502 111.416C329.574 111.416 329.632 111.087 329.632 110.683C329.632 110.278 329.574 109.95 329.502 109.95C329.43 109.95 329.372 110.278 329.372 110.683C329.372 111.087 329.43 111.416 329.502 111.416Z" fill="#E0E0E0"/>
<path d="M329.502 108.465C329.574 108.465 329.632 108.137 329.632 107.732C329.632 107.327 329.574 106.999 329.502 106.999C329.43 106.999 329.372 107.327 329.372 107.732C329.372 108.137 329.43 108.465 329.502 108.465Z" fill="#E0E0E0"/>
<path d="M329.502 105.515C329.574 105.515 329.632 105.187 329.632 104.782C329.632 104.377 329.574 104.049 329.502 104.049C329.43 104.049 329.372 104.377 329.372 104.782C329.372 105.187 329.43 105.515 329.502 105.515Z" fill="#E0E0E0"/>
<path d="M331.349 103.817C331.754 103.817 332.082 103.759 332.082 103.687C332.082 103.615 331.754 103.557 331.349 103.557C330.944 103.557 330.616 103.615 330.616 103.687C330.616 103.759 330.944 103.817 331.349 103.817Z" fill="#E0E0E0"/>
<path d="M334.3 103.817C334.705 103.817 335.034 103.759 335.034 103.687C335.034 103.615 334.705 103.557 334.3 103.557C333.896 103.557 333.567 103.615 333.567 103.687C333.567 103.759 333.896 103.817 334.3 103.817Z" fill="#E0E0E0"/>
<path d="M337.252 103.817C337.657 103.817 337.985 103.759 337.985 103.687C337.985 103.615 337.657 103.557 337.252 103.557C336.847 103.557 336.519 103.615 336.519 103.687C336.519 103.759 336.847 103.817 337.252 103.817Z" fill="#E0E0E0"/>
<path d="M340.203 103.817C340.608 103.817 340.936 103.759 340.936 103.687C340.936 103.615 340.608 103.557 340.203 103.557C339.798 103.557 339.47 103.615 339.47 103.687C339.47 103.759 339.798 103.817 340.203 103.817Z" fill="#E0E0E0"/>
<path d="M343.154 103.817C343.559 103.817 343.888 103.759 343.888 103.687C343.888 103.615 343.559 103.557 343.154 103.557C342.75 103.557 342.421 103.615 342.421 103.687C342.421 103.759 342.75 103.817 343.154 103.817Z" fill="#E0E0E0"/>
<path d="M346.106 103.817C346.511 103.817 346.839 103.759 346.839 103.687C346.839 103.615 346.511 103.557 346.106 103.557C345.701 103.557 345.373 103.615 345.373 103.687C345.373 103.759 345.701 103.817 346.106 103.817Z" fill="#E0E0E0"/>
<path d="M349.057 103.817C349.462 103.817 349.79 103.759 349.79 103.687C349.79 103.615 349.462 103.557 349.057 103.557C348.652 103.557 348.324 103.615 348.324 103.687C348.324 103.759 348.652 103.817 349.057 103.817Z" fill="#E0E0E0"/>
<path d="M351.999 103.817C352.404 103.817 352.732 103.759 352.732 103.687C352.732 103.615 352.404 103.557 351.999 103.557C351.594 103.557 351.266 103.615 351.266 103.687C351.266 103.759 351.594 103.817 351.999 103.817Z" fill="#E0E0E0"/>
<path d="M354.951 103.817C355.356 103.817 355.684 103.759 355.684 103.687C355.684 103.615 355.356 103.557 354.951 103.557C354.546 103.557 354.217 103.615 354.217 103.687C354.217 103.759 354.546 103.817 354.951 103.817Z" fill="#E0E0E0"/>
<path d="M357.902 103.817C358.307 103.817 358.635 103.759 358.635 103.687C358.635 103.615 358.307 103.557 357.902 103.557C357.497 103.557 357.169 103.615 357.169 103.687C357.169 103.759 357.497 103.817 357.902 103.817Z" fill="#E0E0E0"/>
<path d="M360.853 103.817C361.258 103.817 361.586 103.759 361.586 103.687C361.586 103.615 361.258 103.557 360.853 103.557C360.448 103.557 360.12 103.615 360.12 103.687C360.12 103.759 360.448 103.817 360.853 103.817Z" fill="#E0E0E0"/>
<path d="M363.805 103.817C364.21 103.817 364.538 103.759 364.538 103.687C364.538 103.615 364.21 103.557 363.805 103.557C363.4 103.557 363.071 103.615 363.071 103.687C363.071 103.759 363.4 103.817 363.805 103.817Z" fill="#E0E0E0"/>
<path d="M366.756 103.817C367.161 103.817 367.489 103.759 367.489 103.687C367.489 103.615 367.161 103.557 366.756 103.557C366.351 103.557 366.023 103.615 366.023 103.687C366.023 103.759 366.351 103.817 366.756 103.817Z" fill="#E0E0E0"/>
<path d="M369.707 103.817C370.112 103.817 370.441 103.759 370.441 103.687C370.441 103.615 370.112 103.557 369.707 103.557C369.302 103.557 368.974 103.615 368.974 103.687C368.974 103.759 369.302 103.817 369.707 103.817Z" fill="#E0E0E0"/>
<path d="M372.659 103.817C373.064 103.817 373.392 103.759 373.392 103.687C373.392 103.615 373.064 103.557 372.659 103.557C372.254 103.557 371.925 103.615 371.925 103.687C371.925 103.759 372.254 103.817 372.659 103.817Z" fill="#E0E0E0"/>
<path d="M375.61 103.817C376.015 103.817 376.343 103.759 376.343 103.687C376.343 103.615 376.015 103.557 375.61 103.557C375.205 103.557 374.877 103.615 374.877 103.687C374.877 103.759 375.205 103.817 375.61 103.817Z" fill="#E0E0E0"/>
<path d="M378.561 103.817C378.966 103.817 379.295 103.759 379.295 103.687C379.295 103.615 378.966 103.557 378.561 103.557C378.156 103.557 377.828 103.615 377.828 103.687C377.828 103.759 378.156 103.817 378.561 103.817Z" fill="#E0E0E0"/>
<path d="M382.06 103.873C382.06 103.873 381.995 103.798 381.977 103.687L382.06 103.77C381.878 103.787 381.695 103.787 381.513 103.77C381.104 103.77 380.77 103.715 380.77 103.641C380.77 103.566 381.104 103.511 381.513 103.511C381.695 103.494 381.878 103.494 382.06 103.511H382.162V103.576C382.125 103.761 382.097 103.873 382.06 103.873Z" fill="#E0E0E0"/>
<path d="M382.06 106.814C382.132 106.814 382.19 106.485 382.19 106.081C382.19 105.676 382.132 105.348 382.06 105.348C381.989 105.348 381.93 105.676 381.93 106.081C381.93 106.485 381.989 106.814 382.06 106.814Z" fill="#E0E0E0"/>
<path d="M382.06 109.764C382.132 109.764 382.19 109.436 382.19 109.031C382.19 108.626 382.132 108.298 382.06 108.298C381.989 108.298 381.93 108.626 381.93 109.031C381.93 109.436 381.989 109.764 382.06 109.764Z" fill="#E0E0E0"/>
<path d="M382.06 112.714C382.132 112.714 382.19 112.386 382.19 111.981C382.19 111.577 382.132 111.249 382.06 111.249C381.989 111.249 381.93 111.577 381.93 111.981C381.93 112.386 381.989 112.714 382.06 112.714Z" fill="#E0E0E0"/>
<path d="M382.06 115.665C382.132 115.665 382.19 115.337 382.19 114.932C382.19 114.527 382.132 114.199 382.06 114.199C381.989 114.199 381.93 114.527 381.93 114.932C381.93 115.337 381.989 115.665 382.06 115.665Z" fill="#E0E0E0"/>
<path d="M382.06 118.615C382.132 118.615 382.19 118.287 382.19 117.882C382.19 117.477 382.132 117.149 382.06 117.149C381.989 117.149 381.93 117.477 381.93 117.882C381.93 118.287 381.989 118.615 382.06 118.615Z" fill="#E0E0E0"/>
<path d="M382.06 121.566C382.132 121.566 382.19 121.237 382.19 120.833C382.19 120.428 382.132 120.1 382.06 120.1C381.989 120.1 381.93 120.428 381.93 120.833C381.93 121.237 381.989 121.566 382.06 121.566Z" fill="#E0E0E0"/>
<path d="M382.06 124.516C382.132 124.516 382.19 124.188 382.19 123.783C382.19 123.378 382.132 123.05 382.06 123.05C381.989 123.05 381.93 123.378 381.93 123.783C381.93 124.188 381.989 124.516 382.06 124.516Z" fill="#E0E0E0"/>
<path d="M382.06 127.466C382.132 127.466 382.19 127.138 382.19 126.733C382.19 126.329 382.132 126 382.06 126C381.989 126 381.93 126.329 381.93 126.733C381.93 127.138 381.989 127.466 382.06 127.466Z" fill="#E0E0E0"/>
<path d="M382.06 130.417C382.132 130.417 382.19 130.089 382.19 129.684C382.19 129.279 382.132 128.951 382.06 128.951C381.989 128.951 381.93 129.279 381.93 129.684C381.93 130.089 381.989 130.417 382.06 130.417Z" fill="#E0E0E0"/>
<path d="M382.06 133.367C382.132 133.367 382.19 133.039 382.19 132.634C382.19 132.229 382.132 131.901 382.06 131.901C381.989 131.901 381.93 132.229 381.93 132.634C381.93 133.039 381.989 133.367 382.06 133.367Z" fill="#E0E0E0"/>
<path d="M382.06 136.317C382.132 136.317 382.19 135.989 382.19 135.585C382.19 135.18 382.132 134.852 382.06 134.852C381.989 134.852 381.93 135.18 381.93 135.585C381.93 135.989 381.989 136.317 382.06 136.317Z" fill="#E0E0E0"/>
<path d="M382.06 139.268C382.132 139.268 382.19 138.94 382.19 138.535C382.19 138.13 382.132 137.802 382.06 137.802C381.989 137.802 381.93 138.13 381.93 138.535C381.93 138.94 381.989 139.268 382.06 139.268Z" fill="#E0E0E0"/>
<path d="M382.06 142.218C382.132 142.218 382.19 141.89 382.19 141.485C382.19 141.081 382.132 140.752 382.06 140.752C381.989 140.752 381.93 141.081 381.93 141.485C381.93 141.89 381.989 142.218 382.06 142.218Z" fill="#E0E0E0"/>
<path d="M382.06 145.169C382.132 145.169 382.19 144.841 382.19 144.436C382.19 144.031 382.132 143.703 382.06 143.703C381.989 143.703 381.93 144.031 381.93 144.436C381.93 144.841 381.989 145.169 382.06 145.169Z" fill="#E0E0E0"/>
<path d="M382.06 148.119C382.132 148.119 382.19 147.791 382.19 147.386C382.19 146.981 382.132 146.653 382.06 146.653C381.989 146.653 381.93 146.981 381.93 147.386C381.93 147.791 381.989 148.119 382.06 148.119Z" fill="#E0E0E0"/>
<path d="M382.06 151.069C382.132 151.069 382.19 150.741 382.19 150.336C382.19 149.932 382.132 149.604 382.06 149.604C381.989 149.604 381.93 149.932 381.93 150.336C381.93 150.741 381.989 151.069 382.06 151.069Z" fill="#E0E0E0"/>
<path d="M382.06 154.02C382.132 154.02 382.19 153.692 382.19 153.287C382.19 152.882 382.132 152.554 382.06 152.554C381.989 152.554 381.93 152.882 381.93 153.287C381.93 153.692 381.989 154.02 382.06 154.02Z" fill="#E0E0E0"/>
<path d="M384.009 153.751H380.121V157.638H384.009V153.751Z" fill="#E0E0E0"/>
<path d="M331.442 154.289H327.553V158.176H331.442V154.289Z" fill="#E0E0E0"/>
<path d="M384.009 101.358H380.121V105.246H384.009V101.358Z" fill="#E0E0E0"/>
<path d="M331.442 101.739H327.553V105.626H331.442V101.739Z" fill="#E0E0E0"/>
<path d="M323.08 38.1661L312.871 40.7639L312.379 43.872C312.219 44.6869 312.219 45.525 312.379 46.3399C312.454 46.7087 312.633 47.0484 312.894 47.3195C313.156 47.5905 313.489 47.7817 313.854 47.8708C314.843 47.9733 315.842 47.901 316.806 47.6574L317.01 48.446L307.432 50.8769L307.228 50.0882C308.167 49.7147 308.95 49.0302 309.446 48.1491C310.138 46.5697 310.595 44.8973 310.801 43.1854L315.219 17.5968L315.618 17.4948L332.027 38.4351C332.986 39.8264 334.175 41.0439 335.544 42.035C336.241 42.3642 337.029 42.4491 337.781 42.2762L337.985 43.0648L324.063 46.6276L323.859 45.8389L324.435 45.6905C325.265 45.5511 326.04 45.1814 326.671 44.6235C326.795 44.4733 326.88 44.2944 326.917 44.1032C326.954 43.912 326.943 43.7145 326.885 43.5287C326.816 43.2631 326.706 43.0097 326.56 42.7772C326.498 42.6597 326.152 42.1834 325.521 41.3484L323.08 38.1661ZM321.957 36.7836L315.135 27.9696L313.279 39.0011L321.957 36.7836Z" fill="#FEFFC4"/>
<path d="M11.4713 146.505L0.00927734 188.051L14.0607 198.062L45.6623 205.763L58.1824 158.863L11.4713 146.505Z" fill="#FEFFC4"/>
<path d="M6.10687 186.187L0 188.042C1.23237 190.279 2.91326 192.237 4.93747 193.794C7.67839 195.78 10.7709 197.228 14.0514 198.062C14.0514 198.062 7.30412 194.138 6.10687 186.187Z" fill="#B3B57C"/>
<path d="M49.0621 172.326C49.083 172.247 41.1493 170.084 31.3415 167.495C21.5338 164.907 13.566 162.873 13.5451 162.952C13.5242 163.031 21.4579 165.194 31.2657 167.782C41.0734 170.371 49.0412 172.405 49.0621 172.326Z" fill="#E0E0E0"/>
<path d="M48.2714 179.536C48.2927 179.456 40.3335 177.254 30.494 174.618C20.6544 171.981 12.6606 169.908 12.6393 169.988C12.618 170.067 20.5772 172.269 30.4167 174.906C40.2563 177.542 48.25 179.615 48.2714 179.536Z" fill="#E0E0E0"/>
<path d="M45.9093 184.419C45.9302 184.34 37.9964 182.177 28.1887 179.588C18.3809 177 10.4132 174.965 10.3923 175.045C10.3713 175.124 18.3051 177.287 28.1129 179.875C37.9206 182.464 45.8883 184.498 45.9093 184.419Z" fill="#E0E0E0"/>
<path d="M44.4305 189.873C44.4514 189.793 36.5177 187.63 26.7099 185.042C16.9022 182.453 8.93445 180.419 8.91352 180.498C8.89258 180.577 16.8264 182.74 26.6341 185.329C36.4418 187.918 44.4096 189.952 44.4305 189.873Z" fill="#E0E0E0"/>
<path d="M43.672 35.8338L9.54163 44.7148L16.6441 71.9924L50.7745 63.1113L43.672 35.8338Z" fill="#F5F5F5"/>
<path d="M42.8994 37.8664L11.1671 46.1234L17.3742 69.9621L49.1065 61.705L42.8994 37.8664Z" fill="#F7F9FF"/>
<path d="M17.3647 69.9615L24.5946 52.2592L33.8663 59.7465L37.2353 53.5766L49.0964 61.7134L17.3647 69.9615Z" fill="#94C6CC"/>
<path d="M32.0524 51.0455C33.4314 50.6866 34.2583 49.2782 33.8994 47.8997C33.5404 46.5211 32.1315 45.6945 30.7525 46.0533C29.3735 46.4121 28.5466 47.8205 28.9055 49.1991C29.2645 50.5777 30.6734 51.4043 32.0524 51.0455Z" fill="#E0E0E0"/>
<path d="M79.6635 12.2468L26.5039 15.9908L29.4978 58.4714L82.6573 54.7274L79.6635 12.2468Z" fill="#F5F5F5"/>
<path d="M77.9448 15.0559L28.5255 18.5365L31.1424 55.6676L80.5617 52.187L77.9448 15.0559Z" fill="#F7F9FF"/>
<path d="M31.147 55.6642L46.7761 31.3652L58.4887 45.0595L65.1988 36.83L80.5681 52.185L31.147 55.6642Z" fill="#94C6CC"/>
<path d="M58.1996 31.6265C60.3471 31.4752 61.9653 29.6123 61.814 27.4655C61.6627 25.3187 59.7992 23.701 57.6517 23.8522C55.5042 24.0035 53.886 25.8664 54.0373 28.0132C54.1885 30.16 56.0521 31.7777 58.1996 31.6265Z" fill="#94C6CC"/>
<path d="M355.48 277.519C358.053 277.519 360.139 275.434 360.139 272.861C360.139 270.289 358.053 268.204 355.48 268.204C352.906 268.204 350.821 270.289 350.821 272.861C350.821 275.434 352.906 277.519 355.48 277.519Z" fill="#97C2C7"/>
<path d="M367.823 250.947C369.428 250.947 370.728 249.647 370.728 248.043C370.728 246.439 369.428 245.139 367.823 245.139C366.219 245.139 364.918 246.439 364.918 248.043C364.918 249.647 366.219 250.947 367.823 250.947Z" fill="#97C2C7"/>
<path d="M355.842 229.202C357.235 228.731 357.983 227.22 357.511 225.827C357.04 224.434 355.528 223.686 354.135 224.158C352.741 224.629 351.994 226.14 352.465 227.533C352.937 228.926 354.448 229.674 355.842 229.202Z" fill="#97C2C7"/>
<path d="M336.435 324.586C338.829 324.586 340.769 322.646 340.769 320.253C340.769 317.86 338.829 315.92 336.435 315.92C334.041 315.92 332.101 317.86 332.101 320.253C332.101 322.646 334.041 324.586 336.435 324.586Z" fill="#97C2C7"/>
<path d="M337.475 357.226C339.192 357.226 340.584 355.834 340.584 354.118C340.584 352.401 339.192 351.01 337.475 351.01C335.757 351.01 334.365 352.401 334.365 354.118C334.365 355.834 335.757 357.226 337.475 357.226Z" fill="#97C2C7"/>
<path d="M334.059 392.009C335.279 392.009 336.268 391.02 336.268 389.801C336.268 388.581 335.279 387.593 334.059 387.593C332.839 387.593 331.85 388.581 331.85 389.801C331.85 391.02 332.839 392.009 334.059 392.009Z" fill="#97C2C7"/>
<path d="M349.336 324.586C351.729 324.586 353.67 322.646 353.67 320.253C353.67 317.86 351.729 315.92 349.336 315.92C346.942 315.92 345.001 317.86 345.001 320.253C345.001 322.646 346.942 324.586 349.336 324.586Z" fill="#97C2C7"/>
<path d="M364.853 354.118C366.57 354.118 367.962 352.726 367.962 351.01C367.962 349.293 366.57 347.901 364.853 347.901C363.136 347.901 361.744 349.293 361.744 351.01C361.744 352.726 363.136 354.118 364.853 354.118Z" fill="#97C2C7"/>
<path d="M355.76 385.501C356.032 384.312 355.288 383.128 354.098 382.857C352.909 382.585 351.725 383.329 351.453 384.518C351.182 385.707 351.926 386.891 353.115 387.162C354.305 387.434 355.489 386.69 355.76 385.501Z" fill="#97C2C7"/>
<path d="M341.27 301.651C345.233 301.651 348.445 298.44 348.445 294.479C348.445 290.518 345.233 287.307 341.27 287.307C337.308 287.307 334.096 290.518 334.096 294.479C334.096 298.44 337.308 301.651 341.27 301.651Z" fill="#97C2C7"/>
<path d="M341.326 268.575C343.899 268.575 345.985 266.49 345.985 263.917C345.985 261.345 343.899 259.26 341.326 259.26C338.753 259.26 336.667 261.345 336.667 263.917C336.667 266.49 338.753 268.575 341.326 268.575Z" fill="#97C2C7"/>
<path d="M325.66 277.519C328.233 277.519 330.319 275.434 330.319 272.861C330.319 270.289 328.233 268.204 325.66 268.204C323.087 268.204 321.001 270.289 321.001 272.861C321.001 275.434 323.087 277.519 325.66 277.519Z" fill="#97C2C7"/>
<path d="M313.316 300.584C314.921 300.584 316.221 299.284 316.221 297.68C316.221 296.076 314.921 294.776 313.316 294.776C311.712 294.776 310.411 296.076 310.411 297.68C310.411 299.284 311.712 300.584 313.316 300.584Z" fill="#97C2C7"/>
<path d="M326.969 321.623C328.362 321.152 329.11 319.64 328.638 318.247C328.167 316.854 326.655 316.107 325.261 316.578C323.868 317.05 323.12 318.561 323.592 319.954C324.063 321.347 325.575 322.094 326.969 321.623Z" fill="#97C2C7"/>
<path d="M370.413 251.281C370.413 251.281 362.988 267.981 359.962 271.609C357.951 270.88 356.098 269.771 354.505 268.343C354.505 268.343 363.396 251.281 364.9 248.423L370.413 251.281Z" fill="#F7F9FF"/>
<path d="M369.819 244.536C369.707 244.183 358.06 226.546 358.06 226.546L352.946 230.062L364.083 248.423L369.819 244.536Z" fill="#F7F9FF"/>
<path d="M357.605 225.423C357.605 225.423 365.141 216.943 359.869 214.048C354.598 211.154 353.187 221.137 353.661 224.013L357.828 225.581" fill="#F7F9FF"/>
<path d="M361.772 405.295H325.094C325.094 402.217 326.317 399.264 328.494 397.088C330.672 394.911 333.625 393.688 336.704 393.688H350.162C353.241 393.688 356.194 394.911 358.371 397.088C360.549 399.264 361.772 402.217 361.772 405.295Z" fill="#97C2C7"/>
<path d="M341.902 299.897C342.013 299.897 342.106 320.977 342.106 346.964C342.106 372.952 342.013 394.041 341.902 394.041C341.79 394.041 341.697 372.97 341.697 346.964C341.697 320.958 341.79 299.897 341.902 299.897Z" fill="#97C2C7"/>
<path d="M333.614 296.919C333.614 296.919 329.317 303.878 330.505 317.655H353.02C353.02 317.655 354.412 301.28 349.085 296.539L333.614 296.919Z" fill="#F7F9FF"/>
<path d="M331.414 323.881H341.744L340.769 353.014H333.697L331.414 323.881Z" fill="#F7F9FF"/>
<path d="M333.549 355.018L331.414 388.446L336.574 389.43L341.196 355.992L333.549 355.018Z" fill="#F7F9FF"/>
<path d="M329.15 393.688C329.15 393.688 329.214 389.578 333.372 389.43C337.53 389.281 338.013 393.688 338.013 393.688H329.15Z" fill="#F7F9FF"/>
<path d="M346.477 325.013L355.869 320.717L367.118 347.605L360.686 350.546L346.477 325.013Z" fill="#F7F9FF"/>
<path d="M360.863 351.01L351.331 383.13L356.157 385.236L368.102 353.663L360.863 351.01Z" fill="#F7F9FF"/>
<path d="M349.057 388.075C349.326 388.52 361.763 393.178 361.763 393.178C361.763 393.178 364.714 390.552 355.405 386.312L353.419 385.384C353.047 385.214 352.644 385.123 352.235 385.116C351.826 385.11 351.42 385.188 351.043 385.347C350.666 385.506 350.326 385.741 350.045 386.039C349.764 386.336 349.548 386.688 349.41 387.073L349.057 388.075Z" fill="#F7F9FF"/>
<path d="M329.79 266.506C329.446 266.589 330.078 284.923 334.106 291.733C334.106 291.733 348.575 291.26 348.955 291.733C349.336 292.206 353.985 275.775 353.596 266.942C353.531 266.942 343.368 263.342 329.79 266.506Z" fill="#F7F9FF"/>
<path d="M339.34 238.022C339.34 238.022 330.059 238.227 331.804 249.973C333.549 261.718 335.405 261.718 335.461 262.034C335.516 262.349 347.062 261.227 347.062 261.227C347.062 261.227 353.401 237.521 339.34 238.022Z" fill="#F7F9FF"/>
<path d="M310.727 294.479C310.727 294.479 318.152 277.779 321.177 274.151C323.189 274.88 325.041 275.989 326.634 277.417C326.634 277.417 317.743 294.414 316.212 297.29L310.727 294.479Z" fill="#F7F9FF"/>
<path d="M311.321 301.178C311.432 301.53 323.08 319.168 323.08 319.168L328.194 315.651L317.056 297.29L311.321 301.178Z" fill="#F7F9FF"/>
<path d="M323.275 320.866C323.275 320.866 315.738 329.346 321.01 332.24C326.282 335.135 327.692 325.152 327.219 322.276L323.052 320.708" fill="#F7F9FF"/>
<path d="M308.499 132.523C309.372 124.813 303.859 117.947 298.198 112.594C292.536 107.24 286.188 101.785 284.545 94.2048C283.292 88.3968 285.093 82.431 285.91 76.5766C286.726 70.7223 286.179 63.8658 281.575 60.099C273.482 53.4745 259.542 60.2196 251.338 53.7529C242.605 46.8686 250.41 31.328 240.6 26.1324C231.115 21.113 223.207 35.8742 217.481 23.4974C209.796 6.87133 194.835 16.1493 194.835 16.1493C188.961 20.3986 185.879 31.3651 178.844 33.1558C168.44 35.8 157.498 23.1263 148.013 28.1457C138.184 33.3414 143.14 50.5427 134.407 57.4269C126.193 63.9215 112.383 56.2022 104.29 62.8267C99.6498 66.5936 99.1393 73.4221 99.956 79.3044C100.773 85.1866 102.583 91.1523 101.32 96.9325C99.6776 104.513 93.2923 109.968 87.668 115.321C82.0438 120.675 76.5309 127.54 77.3662 135.25C78.2943 143.731 86.6471 149.622 88.8746 157.852C92.1879 170.126 81.0878 183.329 85.5891 195.214C91.2598 210.17 115.01 208.528 124.179 221.638C127.632 226.573 128.421 232.873 131.066 238.292C136.866 250.149 151.029 256.031 164.236 255.845C175.373 255.688 186.083 252.032 196.487 247.866C204.636 250.789 212.98 253.006 221.592 253.118C234.799 253.303 248.962 247.421 254.763 235.564C257.408 230.155 258.197 223.855 261.649 218.91C270.809 205.8 294.569 207.442 300.239 192.486C304.741 180.601 293.641 167.436 296.954 155.124C299.209 146.913 307.543 141.021 308.499 132.523Z" fill="#FF725E"/>
<g opacity="0.8">
<path opacity="0.8" d="M308.499 132.523C309.372 124.813 303.859 117.947 298.198 112.594C292.536 107.24 286.188 101.785 284.545 94.2048C283.292 88.3968 285.093 82.431 285.91 76.5766C286.726 70.7223 286.179 63.8658 281.575 60.099C273.482 53.4745 259.542 60.2196 251.338 53.7529C242.605 46.8686 250.41 31.328 240.6 26.1324C231.115 21.113 223.207 35.8742 217.481 23.4974C209.796 6.87133 194.835 16.1493 194.835 16.1493C188.961 20.3986 185.879 31.3651 178.844 33.1558C168.44 35.8 157.498 23.1263 148.013 28.1457C138.184 33.3414 143.14 50.5427 134.407 57.4269C126.193 63.9215 112.383 56.2022 104.29 62.8267C99.6498 66.5936 99.1393 73.4221 99.956 79.3044C100.773 85.1866 102.583 91.1523 101.32 96.9325C99.6776 104.513 93.2923 109.968 87.668 115.321C82.0438 120.675 76.5309 127.541 77.3662 135.25C78.2943 143.731 86.6471 149.622 88.8746 157.852C92.1879 170.126 81.0878 183.329 85.5891 195.214C91.2598 210.17 115.01 208.528 124.179 221.638C127.632 226.573 128.421 232.873 131.066 238.292C136.866 250.149 151.029 256.031 164.236 255.845C175.373 255.688 186.083 252.032 196.487 247.866C204.636 250.789 212.98 253.006 221.592 253.118C234.799 253.303 248.962 247.421 254.763 235.564C257.408 230.155 258.197 223.855 261.649 218.91C270.809 205.8 294.569 207.442 300.239 192.486C304.741 180.601 293.641 167.436 296.954 155.124C299.209 146.913 307.543 141.021 308.499 132.523Z" fill="#FFB523"/>
</g>
<path d="M233.546 49.55L242.391 90.5771L279.515 67.2709L273.816 36.2268C273.772 35.9813 273.676 35.7483 273.533 35.5437C273.391 35.3391 273.205 35.1679 272.99 35.0418C272.775 34.9157 272.535 34.8377 272.286 34.8133C272.038 34.7888 271.788 34.8184 271.552 34.9001L234.679 47.5459C234.276 47.6822 233.938 47.962 233.729 48.3317C233.521 48.7014 233.455 49.1352 233.546 49.55Z" fill="#455A64"/>
<path d="M280.155 103.473L242.382 90.5771L279.543 67.1224L305.882 71.613L280.155 103.473Z" fill="#455A64"/>
<path d="M244.377 87.9792L278.216 66.7512L272.267 36.9875L236.553 49.8932L244.377 87.9792Z" fill="#F7F9FF"/>
<path d="M247.087 90.3823L280.295 68.4492L295.144 71.4182H295.33L295.19 71.5481L293.761 72.8934L268.545 96.5429L247.069 90.3452L268.591 96.3944H268.517L293.706 72.7171L295.135 71.3718L295.181 71.5388L280.332 68.5605H280.443L247.087 90.3823Z" fill="#263238"/>
<path d="M289.009 78.6178L289.603 78.7199L291.302 79.0539L297.446 80.3157H297.576L297.492 80.4177L290.522 88.6658V88.7122H290.466L289.975 88.5731L281.176 86.0587H281.028L281.139 85.9567L286.865 80.6404L288.48 79.1559C288.852 78.8126 289.056 78.6456 289.056 78.6456C289.056 78.6456 288.861 78.8497 288.49 79.2023L286.903 80.7239L281.269 86.068V85.9196L290.077 88.4153L290.569 88.5545H290.466L297.464 80.3342V80.4641L291.357 79.1374L289.659 78.757L289.009 78.6178Z" fill="#263238"/>
<path d="M288.77 83.1347C290.766 80.9673 292.354 79.1822 292.317 79.1475C292.279 79.1128 290.63 80.8416 288.633 83.009C286.637 85.1764 285.049 86.9616 285.087 86.9963C285.124 87.031 286.773 85.3021 288.77 83.1347Z" fill="#263238"/>
<path d="M256.776 75.8344C256.776 75.8344 256.776 75.7231 256.851 75.5097L257.111 74.5819L258.094 71.1676L261.408 59.932L266.141 44.0574C266.141 44.0574 266.141 44.1687 266.076 44.3914C266.011 44.6141 265.946 44.9202 265.835 45.3192L264.907 48.7427L261.612 59.9876L258.243 71.2047L257.194 74.6004L256.897 75.5282C256.823 75.7231 256.776 75.8344 256.776 75.8344Z" fill="#455A64"/>
<path d="M258.142 61.0518C259.554 56.0676 260.66 52.0158 260.61 52.0018C260.561 51.9879 259.376 56.017 257.963 61.0013C256.55 65.9855 255.445 70.0373 255.494 70.0513C255.544 70.0653 256.729 66.0361 258.142 61.0518Z" fill="#455A64"/>
<path d="M342.44 117.094L299.237 123.347L296.36 134.768L290.736 138.21L301.882 155.708L307.516 152.006L319.432 153.574L342.44 117.094Z" fill="white"/>
<path d="M342.44 117.094L319.544 153.649V153.723H319.423L307.497 152.173H307.59L301.966 155.885L301.845 155.968L301.761 155.848L296.072 146.913L290.652 138.284L290.569 138.154L290.652 138.09L296.276 134.657L296.211 134.749L299.098 123.328V123.236H299.191L342.412 117.112L299.228 123.505L299.339 123.403L296.471 134.824V134.879H296.425L290.801 138.312L290.847 138.108L296.304 146.672L301.993 155.606H301.789L307.423 151.895H307.478L319.423 153.435L319.293 153.5L342.44 117.094Z" fill="#263238"/>
<path d="M319.265 140.585C318.576 141.042 317.802 141.357 316.989 141.511C316.176 141.665 315.341 141.655 314.532 141.482C313.723 141.309 312.956 140.977 312.278 140.504C311.599 140.032 311.021 139.428 310.578 138.73C309.685 137.305 309.379 135.589 309.725 133.944C310.071 132.298 311.043 130.851 312.435 129.906C313.124 129.45 313.898 129.135 314.711 128.981C315.524 128.827 316.359 128.837 317.168 129.01C317.977 129.182 318.743 129.515 319.422 129.988C320.101 130.46 320.679 131.063 321.122 131.762C322.015 133.187 322.321 134.902 321.975 136.548C321.628 138.194 320.657 139.641 319.265 140.585Z" fill="#263238"/>
<path d="M330.121 128.246C337.498 123.27 343.441 119.181 343.395 119.113C343.349 119.045 337.331 123.024 329.954 127.999C322.577 132.975 316.634 137.064 316.68 137.132C316.726 137.2 322.744 133.222 330.121 128.246Z" fill="#263238"/>
<path d="M186.937 219.569C185.497 217.31 184.997 214.578 185.543 211.955C186.089 209.333 187.639 207.028 189.861 205.531L284.972 142.255L295.849 159.336L200.822 222.519C199.721 223.253 198.485 223.76 197.186 224.009C195.887 224.258 194.551 224.245 193.257 223.97C191.963 223.695 190.737 223.164 189.652 222.408C188.567 221.652 187.644 220.687 186.937 219.569Z" fill="#00587A"/>
<path d="M296.889 160.978L284.1 140.891L290.968 136.382L303.757 156.469L296.889 160.978Z" fill="#C4F9FF"/>
<path d="M341.475 120.285L338.997 116.648L342.579 114.125L345.057 117.761L341.475 120.285Z" fill="#003E55"/>
<path d="M362.774 146.551C362.589 146.681 353.029 132.996 341.428 115.98C329.827 98.9644 320.565 85.066 320.75 84.9361C320.936 84.8062 330.486 98.4912 342.096 115.553C353.707 132.616 362.951 146.44 362.774 146.551Z" fill="#E1FCFF"/>
<path d="M363.248 147.238C363.108 147.336 362.951 147.405 362.784 147.441C362.617 147.478 362.445 147.48 362.277 147.449C362.11 147.418 361.95 147.354 361.807 147.26C361.665 147.166 361.542 147.045 361.447 146.904C361.346 146.761 361.274 146.599 361.236 146.428C361.197 146.257 361.193 146.081 361.223 145.908C361.253 145.736 361.317 145.571 361.412 145.423C361.506 145.276 361.628 145.148 361.772 145.048C361.912 144.95 362.069 144.881 362.236 144.844C362.403 144.808 362.575 144.805 362.743 144.836C362.91 144.867 363.07 144.932 363.213 145.025C363.355 145.119 363.478 145.24 363.573 145.382C363.674 145.525 363.746 145.686 363.784 145.857C363.823 146.028 363.827 146.205 363.797 146.377C363.767 146.55 363.703 146.715 363.608 146.862C363.514 147.01 363.392 147.137 363.248 147.238Z" fill="#003E55"/>
<path d="M321.483 86.0123C321.344 86.1104 321.186 86.1797 321.02 86.216C320.853 86.2524 320.681 86.2551 320.513 86.2239C320.345 86.1928 320.185 86.1285 320.043 86.0348C319.9 85.9411 319.778 85.8199 319.683 85.6783C319.582 85.5354 319.51 85.3738 319.471 85.203C319.433 85.0321 319.429 84.8554 319.459 84.6829C319.489 84.5104 319.553 84.3456 319.647 84.1979C319.741 84.0503 319.864 83.9228 320.008 83.8227C320.147 83.7246 320.305 83.6553 320.472 83.619C320.638 83.5827 320.811 83.58 320.978 83.6111C321.146 83.6422 321.306 83.7065 321.448 83.8002C321.591 83.8939 321.713 84.0151 321.808 84.1567C321.91 84.2996 321.981 84.4612 322.02 84.632C322.058 84.8029 322.063 84.9797 322.032 85.1522C322.002 85.3247 321.938 85.4895 321.844 85.6371C321.75 85.7847 321.627 85.9123 321.483 86.0123Z" fill="#003E55"/>
<path opacity="0.3" d="M284.963 142.255L295.84 159.345L293.297 161.034L284.063 142.868L284.963 142.255Z" fill="black"/>
<path opacity="0.5" d="M294.476 141.884L291.654 152.35L293.158 155.124L296.054 144.371L294.476 141.884Z" fill="white"/>
<path d="M49.5047 113.021L65.997 143.629L136.616 199.435L152.885 176.881L83.5566 122.484L49.5047 113.021Z" fill="#C4F9FF"/>
<path d="M83.5566 122.484C83.5647 122.798 83.5007 123.11 83.3695 123.396C83.2383 123.682 83.0434 123.934 82.7997 124.133C82.556 124.331 82.27 124.472 81.9636 124.543C81.6572 124.614 81.3386 124.615 81.0321 124.544C81.8343 125.567 82.2936 126.817 82.3448 128.116C82.396 129.416 82.0365 130.698 81.3174 131.782C80.5983 132.865 79.5561 133.694 78.3387 134.152C77.1213 134.61 75.7906 134.673 74.5355 134.332C74.9036 135.556 74.9402 136.855 74.6413 138.098C74.3425 139.34 73.719 140.481 72.8346 141.404C71.9502 142.327 70.8366 142.999 69.6075 143.35C68.3785 143.702 67.0781 143.721 65.8392 143.406L49.5047 113.039L83.5566 122.484Z" fill="#FEEDDC"/>
<path d="M56.1308 125.332C56.1308 125.332 62.7295 126.26 63.4534 116.899L49.532 113.021L56.1308 125.332Z" fill="#263238"/>
<path d="M74.5726 134.332L144.087 188.413L136.662 199.435L65.997 143.656L65.8763 143.424C66.9137 143.697 68.0002 143.726 69.0504 143.508C70.447 143.227 71.7347 142.555 72.7628 141.569C73.998 140.367 74.7562 138.759 74.8974 137.041C74.9613 136.126 74.8511 135.206 74.5726 134.332Z" fill="#00587A"/>
<path d="M81.0322 124.544L150.797 179.775L152.885 176.881L83.5566 122.484C83.5466 123.029 83.3338 123.55 82.9596 123.947C82.5855 124.343 82.0769 124.586 81.5333 124.627C81.3638 124.617 81.1958 124.589 81.0322 124.544Z" fill="#00587A"/>
<path d="M66.9807 132.996C67.0609 133.101 67.1762 133.173 67.3056 133.2C67.4895 133.235 67.6799 133.2 67.8395 133.103C67.9992 133.005 68.1166 132.851 68.1687 132.671C68.3064 132.09 68.261 131.481 68.0388 130.927C67.9168 130.579 67.6898 130.278 67.3891 130.064C67.2279 129.943 67.0385 129.865 66.8387 129.838C66.639 129.81 66.4356 129.834 66.2475 129.906C66.0488 130.01 65.8742 130.155 65.735 130.331C65.5959 130.507 65.4954 130.71 65.4401 130.927C65.2989 131.403 65.227 131.897 65.2266 132.393C65.1863 133.496 65.3759 134.596 65.7835 135.622C65.8828 135.892 66.0383 136.139 66.2399 136.345C66.4415 136.552 66.6845 136.713 66.9529 136.818C67.2437 136.886 67.5466 136.883 67.8358 136.808C68.125 136.734 68.392 136.591 68.6142 136.392C69.0432 135.907 69.3703 135.341 69.576 134.727C69.7817 134.114 69.8618 133.465 69.8114 132.82C69.8037 131.556 69.4479 130.318 68.7833 129.243C68.1186 128.168 67.1707 127.296 66.0434 126.724C65.7902 126.615 65.5153 126.566 65.2401 126.58C64.9648 126.595 64.6966 126.673 64.4563 126.808C64.0039 127.084 63.625 127.466 63.3519 127.921C62.8496 128.745 62.4741 129.639 62.2382 130.574C61.8918 131.932 61.8193 133.345 62.0247 134.731C62.1082 135.223 62.1918 135.594 62.2567 135.854C62.3217 136.113 62.3495 136.243 62.3495 136.243C62.1666 135.76 62.0329 135.26 61.9505 134.749C61.7146 133.352 61.7683 131.922 62.1082 130.547C62.3585 129.606 62.7496 128.708 63.2684 127.884C63.551 127.404 63.9459 126.999 64.4192 126.706C64.6802 126.558 64.9713 126.472 65.2705 126.455C65.5697 126.437 65.8689 126.488 66.1455 126.603C67.3109 127.185 68.2922 128.078 68.9803 129.184C69.6684 130.289 70.0364 131.564 70.0435 132.866C70.0533 133.547 69.9626 134.225 69.7743 134.879C69.6092 135.532 69.2615 136.124 68.772 136.587C68.5253 136.812 68.2262 136.971 67.9019 137.05C67.5776 137.13 67.2385 137.127 66.9158 137.041C66.6221 136.928 66.3559 136.754 66.135 136.53C65.9141 136.306 65.7436 136.037 65.635 135.742C65.2201 134.692 65.0304 133.567 65.0781 132.439C65.0817 131.927 65.1599 131.417 65.3102 130.927C65.3778 130.689 65.4956 130.468 65.6557 130.279C65.8158 130.09 66.0144 129.938 66.2383 129.832C66.4462 129.752 66.6714 129.725 66.8923 129.756C67.1132 129.787 67.3226 129.874 67.5005 130.008C67.8188 130.238 68.056 130.563 68.178 130.936C68.4124 131.527 68.4482 132.179 68.2801 132.792C68.2199 132.981 68.0915 133.141 67.92 133.24C67.7484 133.34 67.5459 133.372 67.352 133.33C67.2629 133.32 67.179 133.283 67.1124 133.223C67.0458 133.163 66.9997 133.084 66.9807 132.996Z" fill="#782B00"/>
<path d="M69.4031 118.856C69.4031 118.856 69.2639 119.227 69.1525 119.923C69.0168 120.912 69.08 121.919 69.3381 122.883C69.7365 124.311 70.3002 125.687 71.018 126.984C71.9151 128.58 72.5423 130.314 72.8742 132.115C73.1169 133.952 72.8135 135.82 72.0017 137.486C71.4448 138.612 70.6635 139.611 69.7058 140.423C68.7482 141.235 67.6345 141.843 66.4332 142.209C66.0819 142.318 65.7216 142.396 65.3566 142.441L65.635 142.367C65.8206 142.367 66.0805 142.255 66.4146 142.135C67.3627 141.818 68.2552 141.355 69.0597 140.762C70.2459 139.884 71.2013 138.731 71.844 137.403C72.6321 135.766 72.9256 133.934 72.6885 132.133C72.3485 130.352 71.7217 128.638 70.8323 127.058C70.116 125.744 69.5613 124.349 69.1803 122.902C68.9318 121.919 68.8907 120.895 69.0597 119.895C69.1278 119.535 69.2433 119.186 69.4031 118.856Z" fill="#782B00"/>
<path d="M77.2641 120.61C76.6716 120.984 76.236 121.561 76.039 122.234C75.6847 123.885 75.5907 125.582 75.7606 127.262C75.8696 128.953 76.1337 130.63 76.5495 132.272C76.7072 132.903 76.8557 133.404 76.9578 133.757C77.0235 133.934 77.0732 134.118 77.1063 134.304C77.0168 134.138 76.9423 133.964 76.8836 133.785C76.7629 133.441 76.5866 132.94 76.4195 132.309C75.7163 129.759 75.4249 127.112 75.5564 124.469C75.5686 123.698 75.6905 122.933 75.9184 122.196C76.0807 121.695 76.3796 121.248 76.7815 120.907C76.9249 120.782 77.088 120.682 77.2641 120.61Z" fill="#782B00"/>
<path d="M80.5959 132.606C80.3829 132.286 80.2055 131.944 80.0669 131.586C79.6669 130.739 79.4608 129.813 79.4637 128.877C79.4631 128.403 79.5677 127.935 79.7699 127.507C79.9721 127.078 80.2669 126.7 80.6331 126.399C80.8573 126.224 81.1122 126.092 81.3848 126.01C81.4857 125.988 81.5902 125.988 81.6911 126.01C81.3395 126.136 81.0104 126.317 80.7166 126.548C80.3805 126.847 80.1117 127.215 79.9277 127.626C79.7438 128.037 79.6489 128.482 79.6493 128.932C79.652 129.841 79.8349 130.739 80.1876 131.576C80.3441 131.911 80.4804 132.255 80.5959 132.606Z" fill="#782B00"/>
<path d="M64.8554 117.223C64.8876 117.269 64.9126 117.319 64.9297 117.372C64.9297 117.474 65.041 117.613 65.1153 117.808C65.2162 118.043 65.2728 118.295 65.2823 118.55C65.2714 118.89 65.1825 119.224 65.0225 119.524C64.6207 120.288 64.1809 121.031 63.7046 121.751C63.1728 122.657 62.7195 123.607 62.3495 124.59C61.6979 126.402 61.192 128.264 60.8367 130.157L60.4841 131.864C60.4511 132.075 60.4014 132.283 60.3356 132.486C60.3438 132.274 60.3686 132.063 60.4098 131.855C60.4748 131.447 60.5676 130.862 60.6975 130.138C61.0173 128.242 61.508 126.379 62.1639 124.572C62.538 123.579 63.0008 122.623 63.5468 121.714C64.0572 120.879 64.577 120.174 64.8925 119.515C65.0408 119.272 65.1312 118.999 65.157 118.716C65.1827 118.433 65.1431 118.147 65.041 117.882C64.9634 117.667 64.9014 117.447 64.8554 117.223Z" fill="#782B00"/>
<path d="M162.513 49.2918C162.558 44.934 161.432 40.644 159.252 36.87C157.072 33.0959 153.919 29.9762 150.121 27.8368C146.323 25.6974 142.02 24.6169 137.661 24.708C133.303 24.7991 129.049 26.0585 125.343 28.3547C121.638 30.6509 118.618 33.8996 116.598 37.7615C114.577 41.6233 113.632 45.9566 113.859 50.3087C114.087 54.6608 115.479 58.872 117.891 62.5023C120.303 66.1327 123.645 69.049 127.57 70.9466L127.505 77.0886L148.851 77.3113C148.851 77.3113 149.018 73.8691 149.092 70.8167C153.093 68.8098 156.463 65.7387 158.831 61.941C161.198 58.1434 162.472 53.7665 162.513 49.2918Z" fill="#FFEB38"/>
<path d="M141.12 77.1257C141.12 77.1257 141.12 77.0237 141.12 76.8288L141.231 75.9567C141.333 75.1866 141.482 74.0547 141.714 72.5981C141.946 71.1414 142.252 69.3601 142.735 67.3189C143.272 65.0008 144.036 62.7415 145.018 60.5738C145.589 59.3091 146.272 58.0981 147.06 56.9554C147.486 56.33 148.064 55.8225 148.74 55.4802C149.105 55.3111 149.505 55.2321 149.908 55.2499C150.31 55.2677 150.702 55.3816 151.051 55.5823C151.411 55.7859 151.683 56.1168 151.812 56.5101C151.936 56.9264 151.896 57.3747 151.7 57.7626C151.297 58.5028 150.637 59.0702 149.844 59.3584C148.17 59.8956 146.352 59.7488 144.786 58.9502C143.972 58.5338 143.251 57.9565 142.667 57.2531C142.083 56.5498 141.649 55.7351 141.389 54.8586C141.094 53.9592 141.055 52.9953 141.278 52.0752C141.398 51.5818 141.686 51.1455 142.092 50.8408C142.498 50.5362 142.998 50.3822 143.505 50.4052C143.768 50.4348 144.019 50.5303 144.234 50.6828C144.45 50.8353 144.624 51.0398 144.74 51.2773C144.974 51.7419 145.036 52.2742 144.916 52.7803C144.608 53.7456 144 54.5874 143.18 55.1833C142.396 55.8317 141.485 56.308 140.505 56.5813C139.524 56.8546 138.498 56.9189 137.491 56.7699C136.489 56.5941 135.544 56.1793 134.736 55.5607C133.928 54.9421 133.281 54.138 132.851 53.2164C132.628 52.7597 132.502 52.2622 132.48 51.7547C132.457 51.2472 132.539 50.7405 132.721 50.266C132.815 50.0224 132.96 49.8015 133.145 49.6176C133.331 49.4338 133.553 49.2911 133.797 49.199C134.044 49.1198 134.304 49.0928 134.561 49.12C134.818 49.1472 135.067 49.2278 135.292 49.3568C135.733 49.6015 136.086 49.9777 136.303 50.433C136.511 50.8759 136.631 51.3548 136.656 51.8433C136.712 52.7885 136.576 53.7353 136.257 54.6266C135.634 56.3677 134.369 57.805 132.721 58.644C131.166 59.4453 129.378 59.6721 127.672 59.2842C126.834 59.1393 126.067 58.7218 125.491 58.0966C125.204 57.7783 125.036 57.3707 125.016 56.9428C124.996 56.515 125.124 56.0933 125.379 55.7493C125.661 55.4381 126.055 55.2512 126.475 55.2297C126.876 55.2071 127.276 55.2903 127.635 55.4709C128.298 55.8577 128.816 56.4508 129.11 57.1595C129.704 58.4863 130.187 59.7759 130.67 61.0006C132.526 65.9272 133.899 69.9817 134.8 72.7929C135.245 74.1939 135.579 75.298 135.802 76.0402L136.043 76.8845C136.099 77.0793 136.118 77.1721 136.118 77.1721C136.118 77.1721 136.118 77.0793 136.015 76.8845L135.746 76.0402L134.698 72.8115C133.77 70.0281 132.396 65.9736 130.484 61.0656C129.992 59.8409 129.5 58.5419 128.916 57.243C128.641 56.5824 128.159 56.0289 127.542 55.6658C127.243 55.4197 126.858 55.3025 126.473 55.3399C126.087 55.3773 125.732 55.5663 125.486 55.8653C125.24 56.1642 125.123 56.5487 125.16 56.9341C125.198 57.3195 125.387 57.6743 125.686 57.9203C126.228 58.4996 126.945 58.8844 127.728 59.0151C129.369 59.385 131.089 59.1615 132.582 58.3842C134.147 57.5558 135.338 56.1625 135.913 54.4875C136.218 53.6345 136.347 52.7288 136.294 51.8247C136.296 51.3774 136.185 50.9368 135.971 50.5441C135.757 50.1515 135.446 49.8195 135.069 49.5794C134.88 49.4689 134.67 49.4001 134.452 49.3777C134.234 49.3552 134.014 49.3798 133.807 49.4495C133.594 49.528 133.401 49.6516 133.241 49.8117C133.081 49.9719 132.957 50.1649 132.879 50.3773C132.712 50.8135 132.638 51.2793 132.66 51.7455C132.683 52.2117 132.801 52.6683 133.008 53.0865C133.426 53.9774 134.056 54.7526 134.842 55.3445C135.628 55.9364 136.547 56.327 137.519 56.4822C138.479 56.6142 139.456 56.5446 140.388 56.2778C141.319 56.011 142.185 55.5529 142.93 54.9328C143.696 54.3781 144.268 53.5955 144.563 52.6968C144.668 52.2599 144.615 51.8 144.415 51.3979C144.322 51.2037 144.181 51.0363 144.006 50.9114C143.831 50.7864 143.626 50.708 143.412 50.6835C142.973 50.6488 142.538 50.7851 142.197 51.0639C141.853 51.3428 141.607 51.7225 141.491 52.1494C141.281 53.024 141.32 53.9399 141.603 54.7937C141.85 55.6346 142.266 56.4167 142.824 57.0927C143.383 57.7688 144.072 58.3249 144.851 58.7275C146.347 59.4924 148.083 59.639 149.686 59.1357C150.435 58.8807 151.062 58.3588 151.45 57.6698C151.606 57.3478 151.636 56.9793 151.535 56.6362C151.433 56.2931 151.208 56 150.902 55.8142C150.588 55.6345 150.236 55.5323 149.874 55.5161C149.512 55.5 149.152 55.5704 148.823 55.7214C148.181 56.0462 147.632 56.5282 147.227 57.1224C146.444 58.2503 145.764 59.4457 145.194 60.6944C144.226 62.8335 143.468 65.0614 142.93 67.3467C142.429 69.3786 142.104 71.1507 141.863 72.6073L141.324 75.9567L141.185 76.8288C141.148 77.0237 141.12 77.1257 141.12 77.1257Z" fill="#263238"/>
<path d="M147.153 81.2358L128.832 81.041C128.651 81.0398 128.472 81.0027 128.305 80.932C128.138 80.8613 127.987 80.7583 127.86 80.6289C127.733 80.4996 127.633 80.3464 127.566 80.1783C127.499 80.0102 127.465 79.8304 127.468 79.6493C127.469 79.4682 127.506 79.2891 127.577 79.1223C127.647 78.9556 127.75 78.8045 127.88 78.6777C128.009 78.5509 128.162 78.451 128.331 78.3837C128.499 78.3164 128.679 78.283 128.86 78.2854L147.18 78.4802C147.362 78.4814 147.541 78.5185 147.708 78.5892C147.874 78.6599 148.026 78.7629 148.152 78.8923C148.279 79.0216 148.379 79.1748 148.446 79.3429C148.514 79.511 148.547 79.6908 148.545 79.8719C148.544 80.053 148.507 80.2321 148.436 80.3989C148.365 80.5656 148.262 80.7167 148.133 80.8435C148.003 80.9703 147.85 81.0702 147.682 81.1375C147.514 81.2048 147.334 81.2382 147.153 81.2358Z" fill="#263238"/>
<path d="M147.143 82.4605L128.823 82.2656C128.454 82.2656 128.099 82.4122 127.838 82.6732C127.577 82.9342 127.431 83.2882 127.431 83.6573C127.431 84.0264 127.577 84.3804 127.838 84.6414C128.099 84.9024 128.454 85.049 128.823 85.049H130.837L133.454 90.1519C133.605 90.4319 133.828 90.666 134.101 90.8293C134.374 90.9926 134.686 91.0791 135.004 91.0797L141.547 91.1446C141.87 91.1492 142.187 91.065 142.466 90.9014C142.744 90.7378 142.972 90.501 143.125 90.2169L145.77 85.1882H147.134C147.503 85.1882 147.857 85.0416 148.118 84.7806C148.38 84.5196 148.526 84.1656 148.526 83.7965C148.526 83.4274 148.38 83.0734 148.118 82.8124C147.857 82.5514 147.503 82.4048 147.134 82.4048L147.143 82.4605Z" fill="#263238"/>
<g opacity="0.2">
<path opacity="0.2" d="M122.688 33.3707C124.138 32.0447 125.797 30.9664 127.598 30.1791C128.79 29.6414 130.058 29.2879 131.356 29.1307C132.285 29.0472 132.804 29.1307 132.841 29.3348C132.943 29.7802 131.087 30.4111 128.591 32.044C125.322 34.065 122.704 36.9838 121.05 40.4519C119.396 43.9201 118.776 47.7908 119.263 51.6019C119.57 54.5709 120.238 56.4172 119.829 56.612C119.653 56.7048 119.245 56.3522 118.734 55.5822C118.039 54.4737 117.517 53.2662 117.184 52.0009C116.662 50.1085 116.456 48.1432 116.572 46.1836C116.707 43.7535 117.309 41.3721 118.345 39.1695" fill="white"/>
</g>
<g opacity="0.2">
<path opacity="0.2" d="M138.688 30.439C137.148 30.439 135.793 29.9751 135.635 29.1586C135.57 28.7504 135.858 28.3236 136.424 27.9896C137.143 27.6161 137.943 27.4272 138.753 27.4402C139.564 27.4532 140.358 27.6675 141.064 28.0638C141.612 28.4164 141.89 28.8525 141.816 29.2514" fill="white"/>
</g>
<path d="M142.753 90.6343C142.753 90.6343 142.271 90.4673 141.501 90.2354C139.475 89.631 137.312 89.6699 135.31 90.3467C134.549 90.6065 134.094 90.8385 134.076 90.7921C134.424 90.5099 134.82 90.293 135.245 90.1519C137.269 89.3393 139.521 89.2964 141.575 90.0313C142.001 90.1601 142.4 90.3643 142.753 90.6343Z" fill="#455A64"/>
<path d="M145.792 85.2459C145.793 85.1639 142.482 85.0628 138.397 85.0201C134.313 84.9773 131 85.0091 130.999 85.0911C130.999 85.173 134.309 85.2742 138.394 85.3169C142.479 85.3597 145.792 85.3279 145.792 85.2459Z" fill="#455A64"/>
<path d="M144.61 87.3964C144.012 87.5049 143.407 87.5608 142.8 87.5634C141.686 87.619 140.136 87.6654 138.429 87.6747C136.721 87.684 135.171 87.6747 134.057 87.5912C133.451 87.595 132.845 87.5454 132.247 87.4428C132.864 87.3743 133.484 87.3557 134.104 87.3871H138.466H142.828C143.421 87.344 144.017 87.3471 144.61 87.3964Z" fill="#455A64"/>
<path d="M110.099 31.1451C110.156 31.0244 107.518 29.6717 104.208 28.1236C100.897 26.5755 98.168 25.4184 98.1115 25.5391C98.0551 25.6597 100.693 27.0125 104.003 28.5606C107.314 30.1087 110.043 31.2658 110.099 31.1451Z" fill="#263238"/>
<path d="M123.078 19.8157C122.366 19.0059 121.72 18.1402 121.147 17.2271C120.006 15.5849 118.484 13.2933 116.878 10.7326C115.272 8.17185 113.871 5.76886 112.897 4.03388C112.328 3.11625 111.835 2.15443 111.421 1.15771C112.075 2.01458 112.667 2.91681 113.194 3.8576L117.296 10.4821L121.444 17.0694C122.053 17.9454 122.598 18.8631 123.078 19.8157Z" fill="#263238"/>
<path d="M137.837 17.1773C137.97 17.1731 137.98 14.06 137.859 10.2239C137.737 6.38793 137.531 3.28163 137.398 3.28584C137.265 3.29005 137.255 6.40316 137.376 10.2392C137.498 14.0752 137.704 17.1815 137.837 17.1773Z" fill="#263238"/>
<path d="M157.684 9.791C160.178 4.4971 162.103 0.159539 161.982 0.102772C161.862 0.0460048 159.742 4.29153 157.248 9.58543C154.754 14.8793 152.829 19.2169 152.95 19.2737C153.07 19.3305 155.19 15.0849 157.684 9.791Z" fill="#263238"/>
<path d="M167.479 24.026C170.276 21.8037 172.476 19.9176 172.393 19.8133C172.31 19.709 169.976 21.426 167.179 23.6484C164.382 25.8707 162.182 27.7568 162.265 27.8611C162.348 27.9654 164.683 26.2484 167.479 24.026Z" fill="#263238"/>
<path d="M280.434 197.71L283.515 214.067L286.049 209.502L291.497 217.657L294.216 215.82L288.777 207.665L293.77 206.895L280.434 197.71Z" fill="#263238"/>
<path d="M228.312 206.227C234.716 203.082 238.614 196.365 240.841 189.592C243.068 182.819 244.006 175.675 246.502 168.976C248.359 163.994 246.02 156.172 250.382 153.139C255.848 149.344 255.561 139.602 253.315 134.787C250.865 129.545 244.451 125.75 243.987 124.08C242.762 119.701 246.484 114.802 244.962 110.562C241.389 100.486 233.147 102.017 233.147 102.017C229.277 97.5357 224.043 91.6257 215.718 89.668C206.696 87.5526 193.443 86.1331 185.573 91.004C177.703 95.875 171.911 99.1501 169.526 108.103" fill="#263238"/>
<path d="M235.096 144.148C234.163 133.228 229.151 123.06 221.058 115.667C212.964 108.274 202.383 104.199 191.42 104.253H189.165C164.83 105.802 152.561 127.337 154.825 151.571L155.948 273.715L216.608 273.613L215.068 226.824C215.068 226.824 238.447 223.057 238.614 199.668C238.679 188.46 236.915 165.191 235.096 144.148Z" fill="#FFA6C1"/>
<path d="M224.757 161.721C224.77 162.591 224.443 163.432 223.845 164.064C223.246 164.697 222.425 165.071 221.555 165.107C221.13 165.144 220.701 165.095 220.295 164.963C219.889 164.831 219.514 164.619 219.191 164.34C218.868 164.061 218.605 163.719 218.416 163.336C218.228 162.953 218.118 162.537 218.093 162.11C218.081 161.24 218.408 160.399 219.006 159.767C219.604 159.134 220.426 158.76 221.295 158.724C221.721 158.689 222.148 158.738 222.554 158.871C222.96 159.003 223.335 159.215 223.657 159.494C223.98 159.773 224.243 160.114 224.432 160.496C224.621 160.879 224.731 161.295 224.757 161.721Z" fill="#263238"/>
<path d="M230.474 154.382C230.066 154.818 227.523 152.962 223.922 152.99C220.321 153.018 217.704 154.846 217.314 154.391C217.119 154.196 217.537 153.408 218.687 152.536C220.237 151.449 222.085 150.869 223.978 150.875C225.848 150.857 227.675 151.436 229.193 152.526C230.326 153.398 230.678 154.187 230.474 154.382Z" fill="#263238"/>
<path d="M190.984 161.721C190.997 162.591 190.669 163.432 190.071 164.064C189.473 164.697 188.652 165.071 187.782 165.107C187.356 165.144 186.928 165.095 186.522 164.963C186.116 164.831 185.74 164.619 185.417 164.34C185.095 164.061 184.831 163.719 184.643 163.336C184.454 162.953 184.344 162.537 184.32 162.11C184.307 161.24 184.635 160.399 185.233 159.767C185.831 159.134 186.652 158.76 187.522 158.724C187.947 158.689 188.375 158.738 188.781 158.871C189.186 159.003 189.561 159.215 189.884 159.494C190.206 159.773 190.47 160.114 190.659 160.496C190.847 160.879 190.958 161.295 190.984 161.721Z" fill="#263238"/>
<path d="M194.64 153.565C194.279 154.048 191.55 152.471 187.977 152.888C184.404 153.306 181.991 155.393 181.554 154.994C181.341 154.818 181.666 153.992 182.714 153.037C184.136 151.788 185.909 151.01 187.791 150.81C189.648 150.591 191.527 150.968 193.156 151.886C194.362 152.61 194.817 153.343 194.64 153.565Z" fill="#263238"/>
<path d="M207.986 183.06C207.986 182.856 210.205 182.457 213.824 181.974C214.752 181.872 215.606 181.687 215.764 181.047C215.922 180.406 215.588 179.395 215.133 178.328L212.349 171.351C208.525 161.424 205.75 153.259 206.149 153.101C206.548 152.944 209.973 160.876 213.796 170.804L216.432 177.818C216.785 178.857 217.36 180.035 216.924 181.418C216.792 181.741 216.588 182.031 216.328 182.264C216.067 182.497 215.757 182.668 215.421 182.763C214.912 182.903 214.388 182.978 213.861 182.986C210.26 183.227 208.005 183.264 207.986 183.06Z" fill="#263238"/>
<path d="M194.455 138.962C194.046 139.89 190.483 139.24 186.25 139.5C182.018 139.76 178.538 140.706 178.027 139.797C177.805 139.361 178.454 138.479 179.884 137.617C181.786 136.568 183.902 135.966 186.071 135.857C188.24 135.747 190.406 136.133 192.404 136.986C193.907 137.7 194.64 138.507 194.455 138.962Z" fill="#263238"/>
<path d="M228.757 145.215C228.126 146.032 225.648 145.215 222.669 145.215C219.69 145.215 217.175 145.79 216.59 144.946C216.33 144.538 216.729 143.712 217.824 142.933C219.3 141.998 221.021 141.523 222.767 141.568C224.514 141.612 226.208 142.175 227.634 143.183C228.683 143.972 229.026 144.816 228.757 145.215Z" fill="#263238"/>
<path d="M171.243 106.396C171.293 108.996 171.915 111.553 173.065 113.886C174.215 116.218 175.865 118.269 177.897 119.893C179.93 121.516 182.295 122.672 184.824 123.279C187.354 123.885 189.986 123.928 192.534 123.403C196.469 122.586 200.757 120.499 204.228 122.521C207.875 124.655 208.153 130.074 211.402 132.773C216.042 136.633 223.226 132.773 229.036 134.341C233.537 135.566 236.46 139.778 239.486 143.304C242.512 146.83 247.069 150.151 251.551 148.722C251.33 144.692 250.645 140.701 249.51 136.828C248.229 133.005 245.936 129.405 242.512 127.262C240.655 126.103 238.465 125.407 236.711 124.061C232.934 121.148 231.95 115.952 229.565 111.824C227.996 109.165 225.815 106.918 223.203 105.271C220.591 103.623 217.624 102.622 214.548 102.351C209.444 101.943 204.228 103.594 199.244 102.453C195.531 101.609 192.292 99.2985 188.561 98.6769C181.294 97.4615 174.64 102.806 169.545 108.103" fill="#263238"/>
<path d="M194.64 116.166C191.374 115.312 184.691 113.382 182.881 110.599C178.965 104.568 172.208 100.551 165.405 101.08C161.887 101.436 158.578 102.92 155.973 105.312C153.369 107.703 151.608 110.873 150.955 114.347C142.713 114.598 134.797 119.914 131.019 127.828C129.165 131.844 128.316 136.251 128.544 140.668C128.772 145.085 130.07 149.381 132.328 153.185C133.525 155.124 135.029 157.054 135.112 159.383C135.214 162.259 133.135 164.587 131.688 167.009C127.734 173.596 128.244 182.513 131.576 189.508C134.908 196.504 137.191 198.944 141.785 200.261C150.676 202.831 142.305 220.784 156.997 220.459L158.714 167.779C159.153 168.002 159.622 168.161 160.106 168.252C168.849 170.024 169.61 153.018 167.531 148.203C170.612 145.336 173.73 142.432 176.051 138.832C178.371 135.232 180.264 125.509 179.652 121.204C182.826 121.25 196.079 116.546 194.64 116.166Z" fill="#263238"/>
<path d="M159.948 168.067C159.549 167.9 143.846 163.428 144.449 179.386C145.052 195.344 160.978 191.447 160.988 191.011C160.997 190.575 159.948 168.067 159.948 168.067Z" fill="#FFA6C1"/>
<path d="M155.874 185.138C155.8 185.092 155.605 185.342 155.141 185.574C154.489 185.882 153.744 185.925 153.062 185.695C151.345 185.138 149.823 182.513 149.637 179.627C149.545 178.258 149.761 176.885 150.268 175.61C150.399 175.105 150.651 174.639 151.001 174.253C151.352 173.866 151.792 173.571 152.282 173.392C152.599 173.297 152.94 173.315 153.245 173.444C153.55 173.572 153.8 173.804 153.953 174.097C154.185 174.533 154.092 174.858 154.185 174.886C154.277 174.914 154.519 174.608 154.361 173.958C154.256 173.567 154.02 173.223 153.693 172.984C153.24 172.666 152.679 172.54 152.134 172.631C151.488 172.791 150.893 173.112 150.406 173.565C149.919 174.018 149.555 174.588 149.349 175.22C148.721 176.629 148.447 178.171 148.551 179.711C148.774 182.93 150.537 185.88 152.876 186.465C153.31 186.574 153.763 186.583 154.202 186.493C154.641 186.403 155.053 186.216 155.41 185.945C155.855 185.528 155.929 185.166 155.874 185.138Z" fill="#263238"/>
<path d="M133.98 194.156C134.986 195.19 135.755 196.43 136.233 197.79C136.711 199.151 136.886 200.6 136.746 202.035C136.606 203.47 136.155 204.858 135.425 206.101C134.694 207.344 133.7 208.413 132.514 209.233C133.183 209.807 133.961 210.239 134.801 210.506C135.642 210.772 136.527 210.866 137.405 210.783C138.073 212.787 135.27 214.225 134.741 216.266C134.624 216.89 134.673 217.534 134.884 218.133C135.094 218.732 135.457 219.265 135.938 219.68C136.911 220.495 138.047 221.093 139.27 221.434C142.861 222.636 146.62 223.263 150.407 223.289C152.607 223.289 155.048 222.992 156.449 221.285C157.6 219.866 157.665 217.88 157.674 216.062C157.674 211.515 157.705 206.966 157.767 202.414C157.909 201.073 157.63 199.72 156.969 198.545C156.041 197.302 154.445 196.875 152.96 196.522L133.47 192.013" fill="#263238"/>
<path d="M215.021 226.908C215.021 226.908 193.675 224.124 181.016 214.93C181.016 214.93 188.005 234.293 215.161 234.228L215.021 226.908Z" fill="#A96D7F"/>
<path d="M195.884 184.814C196.469 184.739 196.747 188.636 200.283 191.178C203.819 193.72 207.94 193.034 208.014 193.535C208.089 193.776 207.142 194.361 205.388 194.528C203.105 194.72 200.828 194.102 198.956 192.783C197.16 191.512 195.929 189.592 195.522 187.43C195.253 185.806 195.615 184.814 195.884 184.814Z" fill="#263238"/>
<path d="M137.822 160.088C137.627 159.973 137.444 159.839 137.275 159.689C136.796 159.245 136.394 158.725 136.087 158.149C135.568 157.06 135.29 155.873 135.271 154.668C135.251 153.462 135.492 152.267 135.975 151.162C136.648 149.64 137.638 148.28 138.88 147.173C140.296 145.911 141.853 144.818 143.521 143.916C145.247 142.933 147.122 142.061 148.96 140.938C150.885 139.876 152.61 138.485 154.055 136.828C155.406 135.09 156.471 133.148 157.21 131.076C157.99 129.081 158.612 127.095 159.363 125.249C160.043 123.481 160.951 121.809 162.064 120.276C163.04 118.929 164.31 117.822 165.777 117.038C166.849 116.484 168.031 116.177 169.236 116.139C170.442 116.1 171.642 116.331 172.747 116.815C173.333 117.104 173.864 117.493 174.315 117.966C174.468 118.132 174.605 118.312 174.724 118.504C174.145 117.869 173.448 117.352 172.672 116.982C171.591 116.548 170.427 116.355 169.263 116.417C168.099 116.48 166.963 116.796 165.934 117.344C164.524 118.118 163.306 119.199 162.371 120.508C161.294 122.022 160.417 123.668 159.763 125.407C159.029 127.262 158.417 129.22 157.637 131.233C156.884 133.358 155.794 135.347 154.407 137.125C152.924 138.823 151.152 140.246 149.173 141.328C147.317 142.422 145.461 143.322 143.707 144.287C142.069 145.165 140.537 146.226 139.14 147.451C137.928 148.512 136.953 149.818 136.282 151.283C135.81 152.348 135.566 153.5 135.566 154.665C135.566 155.83 135.81 156.982 136.282 158.047C136.667 158.815 137.189 159.506 137.822 160.088Z" fill="#455A64"/>
<path d="M237.815 154.846C237.872 154.761 237.937 154.684 238.01 154.614L238.604 153.974C239.346 153.138 240.031 152.255 240.655 151.329C242.952 147.917 244.315 143.964 244.609 139.862C244.797 137.038 244.444 134.204 243.57 131.512C242.58 128.428 240.959 125.584 238.809 123.162C237.633 121.865 236.33 120.691 234.92 119.654C233.415 118.57 232.009 117.356 230.716 116.027C229.45 114.555 228.485 112.85 227.876 111.007C227.296 109.154 226.445 107.397 225.351 105.793C224.759 105.041 224 104.437 223.133 104.03C222.257 103.64 221.308 103.44 220.349 103.446C218.468 103.496 216.618 103.929 214.91 104.717C213.212 105.45 211.587 106.359 209.898 107.046C208.258 107.796 206.477 108.189 204.673 108.196C202.958 108.08 201.294 107.558 199.819 106.675C198.466 105.871 197.044 105.19 195.569 104.643C192.873 103.795 189.976 103.841 187.308 104.773C185.117 105.534 183.186 106.901 181.74 108.716C180.64 110.089 179.82 111.665 179.327 113.355C179.01 114.422 178.832 115.526 178.798 116.639C178.798 117.4 178.798 117.808 178.798 117.808C178.739 117.421 178.711 117.03 178.714 116.639C178.708 115.514 178.858 114.393 179.16 113.308C179.629 111.579 180.44 109.96 181.545 108.549C183.017 106.667 184.998 105.247 187.253 104.457C189.991 103.473 192.974 103.405 195.754 104.262C197.255 104.807 198.702 105.487 200.079 106.294C201.49 107.137 203.08 107.636 204.72 107.751C206.458 107.734 208.172 107.348 209.75 106.619C211.402 105.932 213.007 105.032 214.752 104.281C216.521 103.462 218.438 103.014 220.386 102.963C221.4 102.965 222.402 103.18 223.328 103.594C224.255 104.021 225.072 104.656 225.713 105.45C226.841 107.092 227.717 108.893 228.312 110.794C228.911 112.587 229.857 114.245 231.096 115.674C232.37 116.985 233.755 118.184 235.235 119.255C236.667 120.314 237.989 121.514 239.18 122.837C241.365 125.314 243.006 128.222 243.997 131.372C244.868 134.113 245.205 136.995 244.99 139.862C244.809 142.219 244.268 144.535 243.384 146.728C242.725 148.383 241.875 149.955 240.85 151.413C239.995 152.686 238.975 153.841 237.815 154.846Z" fill="#455A64"/>
<path d="M61.7463 328.019C61.7463 328.019 87.2968 253.693 91.9094 250.242C106.889 239.025 155.15 230.34 155.15 230.34C155.15 230.34 167.271 262.349 189.582 262.117C212.07 261.886 219.281 237.846 219.281 237.846C219.281 237.846 251.208 236.538 264.192 242.754C269.38 245.241 303.664 312.877 303.664 312.877L266.122 327.954L276.61 404.562L88.0671 404.636L89.8583 328.678L61.7463 328.019Z" fill="#049681"/>
<path d="M106.967 270.666C107.06 270.571 103.985 267.439 100.1 263.672C96.214 259.905 92.9887 256.929 92.896 257.025C92.8032 257.121 95.878 260.252 99.7637 264.019C103.649 267.786 106.875 270.762 106.967 270.666Z" fill="#263238"/>
<path d="M159.79 240.333C158.999 240.79 158.184 241.205 157.349 241.576C156.592 242.087 155.808 242.558 155.001 242.986C155.571 242.236 156.292 241.612 157.116 241.155C157.941 240.698 158.852 240.418 159.79 240.333Z" fill="#263238"/>
<path d="M162.37 253.563C162.451 252.667 162.807 251.817 163.388 251.13C163.969 250.443 164.748 249.951 165.619 249.722C165.684 249.852 164.644 250.372 163.763 251.439C162.881 252.506 162.51 253.6 162.37 253.563Z" fill="#263238"/>
<path d="M170.279 258.01C170.987 256.851 171.469 255.855 171.355 255.786C171.241 255.717 170.575 256.6 169.867 257.758C169.159 258.917 168.677 259.913 168.791 259.982C168.904 260.052 169.571 259.169 170.279 258.01Z" fill="#263238"/>
<path d="M181.32 263.118C181.496 261.963 181.532 261.011 181.4 260.991C181.268 260.971 181.019 261.89 180.843 263.045C180.666 264.2 180.63 265.153 180.762 265.173C180.894 265.193 181.144 264.273 181.32 263.118Z" fill="#263238"/>
<path d="M191.671 267.053C191.531 267.053 191.448 265.773 191.049 264.27C190.65 262.767 190.121 261.589 190.223 261.487C190.829 262.268 191.27 263.164 191.519 264.121C191.768 265.078 191.819 266.076 191.671 267.053Z" fill="#263238"/>
<path d="M203.949 265.198C203.584 264.189 203.275 263.16 203.021 262.118C202.623 261.122 202.279 260.107 201.991 259.074C203.315 260.835 203.997 262.996 203.921 265.198H203.949Z" fill="#263238"/>
<path d="M212.98 258.703C212.612 257.701 212.19 256.719 211.717 255.762C211.107 254.883 210.451 254.038 209.75 253.229C210.739 253.757 211.564 254.547 212.133 255.513C212.703 256.479 212.996 257.582 212.98 258.703Z" fill="#263238"/>
<path d="M138.138 247.078C138.214 247.145 138.282 247.219 138.342 247.301L138.927 248.015L141.154 250.798L149.164 260.921L149.266 261.05L149.164 261.18L138.027 275.005L137.841 275.236L137.655 275.005L137.562 274.893L126.583 261.18L126.472 261.05L126.583 260.921L134.936 250.808L137.275 248.024L137.887 247.31C137.951 247.229 138.022 247.154 138.101 247.087C138.036 247.188 137.965 247.284 137.887 247.375L137.284 248.154L134.992 251.049L126.88 261.19V260.93L137.915 274.606L138.008 274.717H137.627L148.765 260.939V261.199L141.024 251.049L138.843 248.154L138.268 247.375C138.218 247.279 138.175 247.179 138.138 247.078Z" fill="#FAFAFA"/>
<path d="M116.532 239.498C116.391 239.789 116.214 240.06 116.003 240.305C115.641 240.806 115.075 241.52 114.416 242.393C113.061 244.137 111.158 246.54 109.042 249.165L106.805 251.949L106.62 252.172L106.443 251.949C104.875 249.982 103.538 248.238 102.61 247.041C102.083 246.413 101.608 245.743 101.19 245.037C101.792 245.608 102.344 246.229 102.842 246.892C103.835 248.071 105.218 249.741 106.815 251.689H106.453L108.671 248.906C110.787 246.28 112.727 243.914 114.156 242.226C114.871 241.381 115.446 240.695 115.864 240.231C116.053 239.958 116.277 239.711 116.532 239.498Z" fill="#FAFAFA"/>
<path d="M70.0063 303.943C70.2092 304.124 70.3927 304.326 70.5539 304.546L72.011 306.327L77.1248 312.757H76.8L84.3454 303.349L87.9186 298.932V299.22L80.2154 289.163L77.9973 286.203C77.7173 285.856 77.4659 285.487 77.2455 285.099C77.5819 285.407 77.8923 285.742 78.1736 286.101L80.4938 288.977L88.327 298.932L88.4383 299.081L88.3177 299.229L84.7538 303.655L77.1527 313.016L76.9856 313.221L76.8279 313.016L71.844 306.522L70.4797 304.666C70.2959 304.443 70.1372 304.2 70.0063 303.943Z" fill="#FAFAFA"/>
<path d="M143.929 321.942C144.01 322.002 144.085 322.07 144.152 322.146L144.811 322.795L147.317 325.338L156.338 334.615L156.449 334.736L156.356 334.875L146.741 349.776L146.574 350.026L146.361 349.813L146.259 349.711L133.906 337.213L133.785 337.093L133.878 336.954L141.164 326.024L143.196 323.009L143.734 322.229C143.788 322.143 143.85 322.062 143.92 321.988C143.868 322.094 143.809 322.196 143.744 322.294L143.224 323.129L141.228 326.21L134.221 337.139V336.879L146.621 349.33L146.723 349.432H146.352L156.022 334.588V334.847L147.27 325.569L144.802 322.916L144.143 322.202C144.066 322.12 143.995 322.033 143.929 321.942Z" fill="#FAFAFA"/>
<path d="M113.116 317.154C113.376 317.326 113.615 317.525 113.831 317.748L115.687 319.52H115.474C117.237 316.691 120.188 312.098 123.567 306.837L125.033 304.574V304.87C121.933 301.623 119.205 298.738 117.265 296.659L115 294.191C114.712 293.907 114.451 293.597 114.221 293.264C114.555 293.506 114.866 293.779 115.149 294.08L117.516 296.446C119.511 298.469 122.286 301.308 125.395 304.546L125.525 304.685L125.423 304.843L123.957 307.106C120.578 312.321 117.562 316.913 115.697 319.678L115.594 319.826L115.474 319.706L113.673 317.85C113.464 317.638 113.277 317.405 113.116 317.154Z" fill="#FAFAFA"/>
<path d="M180.301 353.867C180.382 353.927 180.457 353.996 180.524 354.071L181.183 354.721L183.689 357.263L192.71 366.541L192.821 366.661L192.729 366.801L183.113 381.701L182.946 381.952L182.733 381.738L182.631 381.636L170.287 369.111L170.167 368.99L170.259 368.851L177.545 357.922L179.577 354.906L180.116 354.127C180.169 354.04 180.231 353.96 180.301 353.886C180.249 353.992 180.19 354.094 180.125 354.192L179.605 355.027L177.628 358.144L170.621 369.074V368.814L182.993 381.256L183.095 381.358H182.724L192.394 366.513V366.773L183.642 357.495L181.137 354.851L180.478 354.136C180.413 354.05 180.354 353.96 180.301 353.867Z" fill="#FAFAFA"/>
<path d="M222.279 311.922C222.36 311.982 222.435 312.05 222.502 312.126L223.161 312.775L225.685 315.299L234.706 324.577L234.818 324.697L234.725 324.836L225.11 339.737L224.943 339.987L224.729 339.774L224.627 339.672L212.274 327.174L212.154 327.054L212.246 326.915L219.532 315.985L221.565 312.97L222.103 312.191C222.156 312.104 222.219 312.023 222.288 311.949C222.236 312.055 222.178 312.157 222.112 312.256L221.592 313.091L219.606 316.227L212.599 327.156V326.896L224.998 339.347L225.101 339.449H224.729L234.4 324.605V324.864L225.648 315.586L223.179 312.933L222.52 312.218C222.433 312.126 222.352 312.026 222.279 311.922Z" fill="#FAFAFA"/>
<path d="M258.577 252.209C258.658 252.269 258.733 252.337 258.8 252.413L259.459 253.062L261.965 255.604L270.986 264.882L271.097 265.003L271.004 265.142L261.398 280.043L261.231 280.293L261.018 280.08L260.916 279.978L248.563 267.48L248.442 267.36L248.535 267.22L255.821 256.291L257.853 253.276L258.391 252.496C258.445 252.41 258.507 252.329 258.577 252.255C258.525 252.361 258.466 252.463 258.401 252.561L257.881 253.396L255.904 256.514L248.888 267.424V267.165L261.287 279.616L261.389 279.718H261.018L270.689 264.873V265.133L261.937 255.855L259.468 253.201L258.809 252.487C258.725 252.4 258.648 252.307 258.577 252.209Z" fill="#FAFAFA"/>
<path d="M301.056 307.774C300.939 308.015 300.796 308.242 300.629 308.452L299.339 310.307L294.643 316.737L294.531 316.895L294.364 316.792L285.659 311.337L282.875 309.602L282.67 309.472L282.8 309.268L289.891 298.561L292.035 295.416C292.279 295.026 292.556 294.657 292.861 294.312C292.665 294.729 292.436 295.13 292.174 295.509L290.151 298.728L283.227 309.5L283.153 309.166L285.937 310.892L294.615 316.394L294.337 316.449L299.172 310.131L300.555 308.377C300.7 308.159 300.868 307.957 301.056 307.774Z" fill="#FAFAFA"/>
<path d="M185.833 275.533C185.914 275.594 185.989 275.662 186.056 275.738L186.715 276.387L189.22 278.929L198.241 288.207L198.353 288.328L198.26 288.467L188.654 303.33L188.487 303.581L188.274 303.367L188.172 303.265L175.819 290.768L175.698 290.647L175.791 290.508L183.076 279.579L185.109 276.563L185.647 275.784C185.701 275.697 185.763 275.617 185.833 275.543C185.781 275.649 185.722 275.751 185.656 275.849L185.137 276.684L183.16 279.801L176.153 290.731V290.471L188.561 302.922L188.664 303.024H188.292L197.963 288.179V288.439L189.211 279.161L186.705 276.517L186.046 275.802C185.969 275.718 185.898 275.628 185.833 275.533Z" fill="#FAFAFA"/>
<g opacity="0.3">
<path opacity="0.3" d="M114.425 294.609C112.634 316.533 111.177 337.956 108.912 359.898L110.156 360.102C117.154 339.282 116.448 316.486 114.425 294.609Z" fill="black"/>
</g>
<path d="M113.346 311.775C114.226 297.758 114.831 286.387 114.698 286.379C114.565 286.371 113.744 297.727 112.864 311.745C111.984 325.763 111.379 337.133 111.512 337.141C111.645 337.149 112.466 325.793 113.346 311.775Z" fill="#263238"/>
<g opacity="0.3">
<path opacity="0.3" d="M243.403 333.651C238.419 309.862 231.523 286.519 224.627 263.212C223.56 259.622 222.474 255.966 220.414 252.84C218.353 249.713 215.142 247.124 211.42 246.735L211.699 251.531C218.196 271.943 219.977 293.542 224.089 314.621C228.2 335.701 235.115 357.003 249.797 372.627C248.232 359.533 246.1 346.541 243.403 333.651Z" fill="black"/>
</g>
<path d="M255.654 369.983C251.273 369.983 225.565 379.335 225.565 379.335C225.565 379.335 141.739 365.251 108.894 359.852L111.808 329.299L69.0133 328.186L60.2892 364.518L60.1685 365.001C57.4635 375.133 58.7525 385.917 63.7695 395.126C66.6466 400.322 71.3057 405.703 76.0204 405.703C101.255 405.703 233.556 405.796 233.556 405.796L254.698 405.49C259.078 402.085 256.155 404.562 260.053 405.007C263.951 405.453 276.601 404.525 276.601 404.525C276.601 404.525 283.895 404.043 286.336 400.146C288.777 396.249 292.174 386.526 292.174 385.069C292.174 383.612 260.025 369.983 255.654 369.983Z" fill="#FFA6C1"/>
<path d="M271.737 391.035C271.518 391.226 271.274 391.388 271.014 391.517C270.531 391.805 269.835 392.204 268.962 392.686C267.218 393.614 264.805 394.978 262.122 396.397C260.836 397.017 259.596 397.727 258.41 398.522C257.454 399.15 256.787 400.131 256.554 401.25C256.413 402.002 256.558 402.78 256.962 403.43C257.142 403.648 257.334 403.856 257.538 404.052C257.538 404.052 257.463 404.052 257.324 403.959C257.138 403.841 256.972 403.694 256.832 403.523C256.588 403.193 256.411 402.819 256.313 402.421C256.214 402.023 256.195 401.609 256.257 401.203C256.324 400.637 256.521 400.095 256.832 399.617C257.188 399.081 257.63 398.608 258.141 398.216C259.319 397.39 260.56 396.658 261.853 396.026C264.535 394.598 266.976 393.317 268.749 392.417C269.677 391.963 270.364 391.601 270.865 391.369C271.139 391.218 271.433 391.106 271.737 391.035Z" fill="#263238"/>
<path d="M277.343 393.846C277.343 393.892 276.953 393.985 276.304 393.948C275.455 393.88 274.629 393.633 273.883 393.224C273.136 392.814 272.484 392.252 271.969 391.573C271.589 391.044 271.45 390.645 271.496 390.645C272.199 391.551 273.08 392.303 274.086 392.854C275.092 393.405 276.201 393.742 277.343 393.846Z" fill="#EB996E"/>
<path d="M109.469 359.833C109.469 359.926 107.613 360.111 104.764 360.863C103.086 361.307 101.44 361.862 99.8353 362.524C95.8974 364.146 92.2538 366.406 89.0508 369.213C87.7319 370.366 86.4917 371.606 85.3385 372.924C83.3895 375.16 82.4149 376.728 82.3314 376.635C82.5109 376.241 82.7285 375.865 82.9811 375.513C83.2468 375.08 83.5349 374.662 83.8442 374.26C84.1969 373.787 84.5867 373.221 85.0786 372.664C86.1952 371.311 87.4113 370.042 88.7167 368.87C91.9253 365.991 95.617 363.702 99.6219 362.106C101.254 361.456 102.932 360.929 104.643 360.529C105.367 360.334 106.035 360.241 106.62 360.13C107.12 360.032 107.625 359.961 108.133 359.917C108.574 359.844 109.022 359.816 109.469 359.833Z" fill="#263238"/>
<path d="M230.224 218.307C230.224 218.307 223.031 215.524 224.052 211.905C224.76 209.609 226.06 207.539 227.82 205.902C227.82 205.902 233.203 198.916 235.068 198.684C236.934 198.452 238.976 200.837 238.976 200.837C238.976 200.837 242.521 198.053 245.008 199.408C247.57 200.962 250.049 202.65 252.433 204.464C252.433 204.464 259.087 204.613 260.053 206.533C261.018 208.454 264.6 218.103 264.6 218.103C264.6 218.103 264.183 224.866 261.742 226.564C259.802 227.91 244.173 241.52 244.173 241.52C244.173 241.52 267.468 291.51 275.543 307.014C281.752 318.926 305.928 355.612 306.17 361.559C306.411 367.506 309.14 375.856 304.685 380.699C300.23 385.542 300.044 397.743 289.891 399.552C279.738 401.361 279.784 402.706 273.686 398.299C267.589 393.892 247.18 381.812 239.922 341.63C232.665 301.447 215.291 253.081 215.291 253.081C215.291 253.081 208.608 243.673 208.72 242.207C208.831 240.741 208.274 233.653 213.741 230.007C219.207 226.36 230.224 218.307 230.224 218.307Z" fill="#FFA6C1"/>
<path d="M248.322 222.315C248.322 222.315 248.646 222.065 249.25 221.61C250.046 220.948 250.768 220.201 251.403 219.383C252.339 218.162 253.192 216.879 253.955 215.542C254.436 214.776 254.867 213.98 255.245 213.158C255.661 212.293 255.819 211.327 255.7 210.374C255.522 209.44 255.099 208.569 254.475 207.851C253.9 207.161 253.28 206.51 252.619 205.902C251.356 204.696 250.233 203.592 249.259 202.711C248.284 201.829 247.458 201.152 246.883 200.697C246.555 200.478 246.245 200.233 245.955 199.964C246.283 200.139 246.594 200.344 246.883 200.577C247.738 201.178 248.562 201.822 249.352 202.507C250.354 203.369 251.496 204.455 252.776 205.643C253.477 206.272 254.131 206.951 254.735 207.674C255.408 208.44 255.863 209.373 256.053 210.374C256.175 211.388 256.004 212.415 255.561 213.334C255.17 214.167 254.724 214.973 254.224 215.746C253.443 217.088 252.562 218.368 251.588 219.578C250.924 220.393 250.16 221.123 249.315 221.749C249.082 221.917 248.841 222.072 248.591 222.213C248.424 222.287 248.331 222.334 248.322 222.315Z" fill="#263238"/>
<path d="M260.025 206.543C260.025 206.543 259.932 206.385 259.691 206.144C259.293 205.815 258.836 205.567 258.345 205.411C256.417 204.839 254.417 204.546 252.405 204.538C250.874 203.397 249.045 202.061 246.837 200.642C245.751 199.992 244.609 199 243.124 199.176C241.625 199.39 240.209 199.998 239.022 200.939L238.939 200.994L238.874 200.92C238.17 200.109 237.3 199.46 236.321 199.018C235.829 198.79 235.27 198.754 234.753 198.916C234.246 199.174 233.777 199.502 233.361 199.89C231.558 201.589 229.895 203.428 228.386 205.392C227.542 206.411 226.802 207.511 226.177 208.676C225.515 209.875 225.01 211.153 224.674 212.48C224.638 212.645 224.619 212.813 224.618 212.981V213.482C224.701 213.808 224.829 214.12 224.999 214.41C225.364 215.016 225.835 215.55 226.391 215.987C227.546 216.898 228.832 217.63 230.205 218.159L230.465 218.261L230.242 218.428C227.495 220.438 224.624 222.513 221.63 224.653L217.054 227.891L214.687 229.524C214.298 229.802 213.871 230.053 213.499 230.35L212.924 230.786C212.738 230.934 212.571 231.111 212.395 231.278C211.001 232.661 210.007 234.395 209.518 236.297C209.021 238.258 208.803 240.278 208.868 242.3C208.978 242.777 209.157 243.237 209.397 243.664C209.639 244.118 209.889 244.591 210.149 245.018C210.678 245.946 211.235 246.8 211.801 247.681C212.943 249.444 214.149 251.207 215.383 252.96C218.502 261.774 221.555 271.117 224.544 280.794C227.207 289.413 229.658 297.884 231.857 306.095C232.98 310.196 233.982 314.26 234.985 318.221C235.987 322.183 236.841 326.098 237.667 329.93C238.493 333.762 239.208 337.501 239.913 341.129L241.017 346.482C241.212 347.354 241.361 348.236 241.584 349.089L242.261 351.622L242.929 354.118L243.263 355.352L243.663 356.549L245.222 361.188L246.985 365.576L247.412 366.643L247.904 367.673L248.832 369.696C251.142 374.48 253.942 379.014 257.185 383.223C259.673 386.37 262.438 389.288 265.445 391.944C267.349 393.62 269.341 395.194 271.413 396.657L273.018 397.817L273.557 398.225L272.99 397.854L271.366 396.731C265.946 393.012 261.11 388.506 257.018 383.362C253.749 379.151 250.928 374.611 248.6 369.816L247.626 367.794L247.134 366.764L246.697 365.697L244.915 361.299L243.338 356.66L242.939 355.463L242.605 354.229L241.927 351.733L241.24 349.191C241.017 348.338 240.86 347.456 240.674 346.575L239.551 341.212C238.836 337.584 238.15 333.79 237.287 330.023C236.423 326.256 235.532 322.313 234.595 318.333C233.658 314.352 232.581 310.317 231.458 306.216C229.249 298.005 226.818 289.515 224.135 280.924C221.147 271.275 218.093 261.923 214.984 253.09C213.741 251.327 212.543 249.564 211.393 247.792C210.817 246.865 210.26 246.011 209.731 245.111C209.462 244.656 209.212 244.183 208.97 243.738C208.702 243.264 208.51 242.75 208.404 242.216C208.34 240.16 208.564 238.105 209.072 236.111C209.58 234.149 210.61 232.36 212.052 230.934C212.237 230.767 212.404 230.582 212.599 230.424L213.193 229.979C213.583 229.673 213.991 229.422 214.39 229.153L216.757 227.529L221.509 224.375L230.131 218.168V218.437C228.726 217.892 227.412 217.138 226.233 216.201C225.651 215.74 225.157 215.177 224.776 214.54C224.591 214.215 224.453 213.865 224.367 213.501L224.321 212.944C224.324 212.76 224.346 212.577 224.386 212.397C224.729 211.04 225.247 209.733 225.927 208.509C226.56 207.334 227.31 206.224 228.163 205.197C229.686 203.226 231.365 201.379 233.184 199.677C233.623 199.272 234.116 198.931 234.651 198.666C235.226 198.482 235.849 198.522 236.396 198.777C237.405 199.236 238.302 199.91 239.022 200.753H238.874C240.096 199.791 241.554 199.173 243.096 198.962C243.823 198.896 244.552 199.055 245.185 199.417C245.788 199.751 246.354 200.113 246.892 200.475C249.055 201.904 250.874 203.258 252.405 204.418C254.426 204.435 256.433 204.747 258.364 205.346C258.859 205.51 259.316 205.772 259.709 206.116C259.804 206.206 259.885 206.309 259.951 206.422L260.025 206.543Z" fill="#263238"/>
<path d="M236.887 213.529C236.894 213.704 236.862 213.878 236.795 214.039C236.656 214.494 236.456 214.928 236.201 215.329C235.363 216.705 234.017 217.696 232.453 218.087C230.889 218.478 229.235 218.237 227.848 217.416C227.434 217.184 227.053 216.897 226.715 216.563C226.483 216.321 226.372 216.173 226.391 216.154C226.9 216.524 227.43 216.864 227.978 217.175C229.318 217.875 230.87 218.058 232.337 217.688C233.803 217.319 235.083 216.423 235.932 215.171C236.28 214.642 236.6 214.094 236.887 213.529Z" fill="#263238"/>
<path d="M239.291 223.577C239.291 223.577 239.644 223.354 240.266 222.937C241.132 222.327 241.929 221.624 242.642 220.84C243.692 219.667 244.666 218.427 245.556 217.129C246.113 216.39 246.609 215.609 247.041 214.791C247.5 213.94 247.682 212.967 247.561 212.007C247.376 211.048 246.962 210.147 246.354 209.382C245.788 208.612 245.147 207.934 244.563 207.248C243.393 205.893 242.41 204.613 241.537 203.592C240.665 202.572 239.913 201.737 239.375 201.245C239.082 200.985 238.806 200.706 238.549 200.41C238.549 200.41 238.642 200.456 238.799 200.577C238.957 200.697 239.189 200.883 239.477 201.133C240.279 201.843 241.035 202.602 241.741 203.407C242.669 204.418 243.653 205.68 244.832 207.006C245.417 207.674 246.076 208.352 246.688 209.15C247.338 209.959 247.781 210.914 247.978 211.933C248.111 212.973 247.913 214.028 247.412 214.948C246.966 215.782 246.45 216.576 245.871 217.324C244.96 218.631 243.955 219.872 242.864 221.035C242.121 221.814 241.282 222.497 240.368 223.067C240.119 223.217 239.862 223.353 239.597 223.475C239.502 223.526 239.398 223.561 239.291 223.577Z" fill="#263238"/>
<path d="M373.995 405.759C373.995 405.889 292.239 406 191.401 406C90.5637 406 8.78906 405.889 8.78906 405.759C8.78906 405.629 90.5265 405.518 191.401 405.518C292.276 405.518 373.995 405.62 373.995 405.759Z" fill="#263238"/>
</svg>
